# Blender v2.79 (sub 0) OBJ File: 'goniec.blend'
# www.blender.org
o Bishop_2_Cylinder.009
v -21.993763 5.899465 9.000000
v -21.732677 6.629710 9.000000
v -21.518082 6.629710 8.481918
v -21.702696 5.899465 8.297303
v -21.732677 4.729220 9.000000
v -21.518082 4.729220 8.481918
v -21.702696 5.899465 9.702697
v -21.518082 6.629710 9.518082
v -21.000000 7.338325 9.000000
v -21.000000 6.629710 8.267322
v -21.000000 5.899465 8.006237
v -21.585491 4.557829 8.414508
v -21.828009 4.557829 8.999999
v -21.518082 4.729220 9.518082
v -21.000000 4.729220 8.267322
v -21.000000 5.899465 9.993763
v -20.297302 5.899465 8.297303
v -21.000000 4.557829 8.171990
v -21.505112 4.435772 8.494886
v -21.714336 4.435772 8.999999
v -21.585491 4.557829 9.585490
v -21.000000 4.729220 9.732677
v -20.481918 4.729220 8.481918
v -20.297304 5.899465 9.702697
v -20.481918 6.629710 9.518082
v -21.000000 6.629710 9.732677
v -20.469042 6.629710 8.513005
v -20.267323 6.629710 9.000000
v -20.006237 5.899465 9.000000
v -20.414509 4.557829 8.414509
v -21.000000 4.435772 8.285663
v -21.834156 4.224946 8.165841
v -22.179678 4.224946 8.999999
v -21.505114 4.435772 9.505112
v -21.000000 4.557829 9.828010
v -20.481918 4.729220 9.518082
v -20.267323 4.729220 9.000000
v -20.171989 4.557829 9.000000
v -20.494886 4.435772 8.494886
v -21.000000 4.224946 7.820323
v -21.482601 4.027724 8.517398
v -21.682501 4.027724 8.999999
v -21.834158 4.224946 9.834157
v -21.000000 4.435772 9.714336
v -20.414509 4.557829 9.585491
v -20.285664 4.435772 9.000000
v -20.165842 4.224946 8.165842
v -21.000000 4.027724 8.317498
v -21.706589 1.740510 8.293408
v -21.999269 1.740510 8.999999
v -21.482601 4.027724 9.482600
v -21.000000 4.224946 10.179677
v -20.494886 4.435772 9.505113
v -19.820322 4.224946 9.000000
v -20.517399 4.027724 8.517399
v -21.000000 1.740510 8.000731
v -22.233236 1.658809 8.999998
v -21.872028 1.658809 8.127970
v -21.706591 1.740510 9.706590
v -21.000000 4.027724 9.682501
v -20.165842 4.224946 9.834158
v -20.317499 4.027724 9.000000
v -20.293409 1.740510 8.293409
v -21.000000 1.658809 7.766764
v -22.372000 1.422860 8.999998
v -21.970150 1.422860 8.029848
v -21.872030 1.658809 9.872028
v -21.000000 1.740510 9.999269
v -20.517399 4.027724 9.482601
v -20.000731 1.740510 9.000000
v -20.127970 1.658809 8.127971
v -21.000000 1.422860 7.628000
v -22.892124 1.061347 8.999998
v -22.337933 1.061347 7.662064
v -21.970150 1.422860 9.970150
v -21.000000 1.658809 10.233235
v -20.293409 1.740510 9.706590
v -19.766764 1.658809 9.000000
v -20.029850 1.422860 8.029849
v -21.000000 1.061347 7.107875
v -22.525333 0.619601 8.999998
v -22.078573 0.619601 7.921424
v -22.337934 1.061347 10.337934
v -21.000000 1.422860 10.372000
v -20.127970 1.658809 9.872029
v -19.628000 1.422860 9.000000
v -19.662066 1.061347 7.662066
v -21.000000 0.619601 7.474665
v -22.772449 0.509975 8.999998
v -22.253309 0.509975 7.746687
v -22.078575 0.619601 10.078573
v -21.000000 1.061347 10.892125
v -20.029850 1.422860 9.970150
v -19.107876 1.061347 9.000000
v -19.921425 0.619601 7.921426
v -21.000000 0.509975 7.227550
v -23.000000 -0.000000 8.999998
v -22.414211 -0.000000 7.585784
v -22.253313 0.509975 10.253311
v -21.000000 0.619601 10.525334
v -19.662066 1.061347 10.337934
v -19.474667 0.619601 9.000000
v -19.746689 0.509975 7.746688
v -21.000000 -0.000000 7.000000
v -21.000000 -0.000000 11.000000
v -22.414215 -0.000000 10.414213
v -19.585787 -0.000000 7.585786
v -19.000000 -0.000000 9.000000
v -19.585787 -0.000000 10.414213
v -21.000000 0.509975 10.772450
v -19.921425 0.619601 10.078574
v -19.227551 0.509975 9.000000
v -19.746689 0.509975 10.253311
v -21.000000 7.339115 9.000000
v -21.199186 7.454114 9.000000
v -21.140846 7.454114 8.859155
v -21.000000 7.454114 8.800814
v -21.140846 7.454114 9.140846
v -21.199186 7.684114 9.000000
v -21.140846 7.684114 8.859154
v -20.859154 7.454114 8.859155
v -21.000000 7.684114 8.800814
v -21.000000 7.454114 9.199186
v -21.140846 7.684114 9.140846
v -21.000000 7.799115 9.000000
v -20.800814 7.454114 9.000000
v -20.859154 7.684114 8.859154
v -20.859154 7.454114 9.140846
v -21.000000 7.684114 9.199186
v -20.800814 7.684114 9.000000
v -20.859154 7.684114 9.140846
vn -0.8773 0.3136 -0.3634
vn -0.9049 -0.2019 -0.3748
vn -0.8773 0.3136 0.3634
vn -0.6681 0.6907 -0.2767
vn -0.8217 0.4571 -0.3404
vn -0.9049 -0.2019 0.3748
vn -0.3748 -0.2019 -0.9049
vn -0.6681 0.6907 0.2767
vn -0.2767 0.6907 -0.6681
vn 0.6684 0.6903 0.2769
vn -0.3404 0.4571 -0.8217
vn -0.7003 -0.6522 -0.2901
vn -0.8217 0.4571 0.3404
vn -0.3748 -0.2019 0.9049
vn 0.3748 -0.2019 -0.9049
vn -0.2769 0.6903 0.6684
vn 0.3062 0.6843 -0.6618
vn 0.3404 0.4571 -0.8217
vn -0.2901 -0.6522 -0.7003
vn -0.4068 0.8979 -0.1685
vn -0.7003 -0.6522 0.2901
vn -0.3404 0.4571 0.8217
vn 0.3748 -0.2019 0.9049
vn 0.9049 -0.2019 -0.3748
vn 0.8773 0.3136 0.3634
vn -0.3634 0.3137 0.8773
vn 0.2769 0.6903 0.6684
vn 0.8773 0.3136 -0.3634
vn 0.6684 0.6903 -0.2769
vn 0.8217 0.4571 -0.3404
vn 0.2901 -0.6522 -0.7003
vn -0.1685 0.8979 -0.4068
vn -0.3645 -0.9189 -0.1510
vn -0.4068 0.8979 0.1685
vn -0.2901 -0.6522 0.7003
vn 0.3404 0.4571 0.8217
vn 0.9049 -0.2019 0.3748
vn -0.3634 0.3136 -0.8773
vn 0.3634 0.3136 -0.8773
vn 0.8217 0.4571 0.3404
vn 0.7003 -0.6522 -0.2901
vn 0.1685 0.8979 -0.4068
vn -0.1510 -0.9189 -0.3645
vn -0.9164 0.1269 -0.3796
vn -0.3645 -0.9189 0.1510
vn -0.1685 0.8979 0.4068
vn 0.2901 -0.6522 0.7003
vn 0.7003 -0.6522 0.2901
vn 0.4068 0.8979 -0.1685
vn 0.1510 -0.9189 -0.3645
vn -0.3796 0.1269 -0.9164
vn -0.3266 0.9354 -0.1353
vn -0.9164 0.1269 0.3796
vn -0.1510 -0.9189 0.3645
vn 0.1685 0.8979 0.4068
vn 0.4068 0.8979 0.1685
vn 0.3645 -0.9189 -0.1510
vn 0.3796 0.1269 -0.9164
vn -0.1353 0.9354 -0.3266
vn -0.8118 0.4774 -0.3363
vn -0.3266 0.9354 0.1353
vn -0.3796 0.1269 0.9164
vn 0.1510 -0.9189 0.3645
vn 0.3645 -0.9189 0.1510
vn 0.9164 0.1269 -0.3796
vn 0.1353 0.9354 -0.3266
vn -0.3363 0.4774 -0.8118
vn -0.5554 0.7991 -0.2301
vn -0.8118 0.4774 0.3363
vn -0.1353 0.9354 0.3266
vn 0.3796 0.1269 0.9164
vn 0.9164 0.1269 0.3796
vn 0.3266 0.9354 -0.1353
vn 0.3363 0.4774 -0.8118
vn -0.2301 0.7991 -0.5554
vn -0.7330 -0.6087 -0.3036
vn -0.5554 0.7991 0.2301
vn -0.3363 0.4774 0.8118
vn 0.1353 0.9354 0.3266
vn 0.3266 0.9354 0.1353
vn 0.8118 0.4774 -0.3363
vn 0.2301 0.7991 -0.5554
vn -0.3036 -0.6087 -0.7330
vn -0.3999 0.9015 -0.1656
vn -0.7330 -0.6087 0.3036
vn -0.2301 0.7991 0.5554
vn 0.3363 0.4774 0.8118
vn 0.8118 0.4774 0.3363
vn 0.5554 0.7991 -0.2301
vn 0.3036 -0.6087 -0.7330
vn -0.1656 0.9015 -0.3999
vn -0.8541 0.3811 -0.3538
vn -0.3999 0.9015 0.1656
vn -0.3036 -0.6087 0.7330
vn 0.2301 0.7991 0.5554
vn 0.5554 0.7991 0.2301
vn 0.7330 -0.6087 -0.3036
vn 0.1656 0.9015 -0.3999
vn -0.3538 0.3811 -0.8542
vn -0.8541 0.3811 0.3538
vn -0.1656 0.9015 0.3999
vn 0.3036 -0.6087 0.7330
vn 0.7330 -0.6087 0.3036
vn 0.3999 0.9015 -0.1656
vn 0.3538 0.3811 -0.8542
vn 0.3538 0.3811 0.8542
vn -0.3538 0.3811 0.8542
vn 0.8541 0.3811 -0.3538
vn 0.8541 0.3811 0.3538
vn 0.1656 0.9015 0.3999
vn 0.3999 0.9015 0.1656
vn -0.4896 -0.8480 -0.2028
vn -0.2028 -0.8480 -0.4896
vn -0.4896 -0.8480 0.2028
vn -0.9239 0.0000 -0.3827
vn 0.2028 -0.8480 -0.4896
vn -0.3827 -0.0000 -0.9239
vn -0.2028 -0.8480 0.4896
vn -0.9239 0.0000 0.3827
vn -0.4896 0.8480 -0.2028
vn 0.4896 -0.8480 -0.2028
vn 0.3827 0.0000 -0.9239
vn -0.2028 0.8480 -0.4896
vn 0.2028 -0.8480 0.4896
vn -0.3827 0.0000 0.9239
vn -0.4896 0.8480 0.2028
vn 0.4896 -0.8480 0.2028
vn 0.9239 0.0000 -0.3827
vn 0.2028 0.8480 -0.4896
vn 0.3827 0.0000 0.9239
vn -0.2028 0.8480 0.4896
vn 0.9239 0.0000 0.3827
vn 0.4896 0.8480 -0.2028
vn 0.2028 0.8480 0.4896
vn 0.4896 0.8480 0.2028
vn 0.3634 0.3136 0.8773
vn 0.0000 -1.0000 0.0000
vn -0.3634 0.3136 0.8773
vn 0.3942 0.3444 -0.8520
vn 0.3267 0.9354 -0.1353
vn -0.8542 0.3811 0.3538
vn 0.3538 0.3811 0.8541
vn -0.3538 0.3811 0.8541
vn 0.8542 0.3811 -0.3538
vn 0.8542 0.3811 0.3538
s off
f 2//1 4//1 1//1
f 1//2 6//2 5//2
f 2//3 7//3 8//3
f 2//4 9//4 3//4
f 6//5 13//5 5//5
f 5//6 7//6 1//6
f 4//7 15//7 6//7
f 8//8 9//8 2//8
f 3//9 9//9 10//9
f 28//10 114//10 25//10
f 15//11 12//11 6//11
f 20//12 12//12 19//12
f 5//13 21//13 14//13
f 16//14 14//14 22//14
f 11//15 23//15 15//15
f 8//16 26//16 114//16
f 10//17 9//17 27//17
f 30//18 15//18 23//18
f 31//19 12//19 18//19
f 32//20 20//20 19//20
f 34//21 13//21 20//21
f 14//22 35//22 22//22
f 24//23 22//23 36//23
f 17//24 37//24 23//24
f 29//25 25//25 24//25
f 16//26 8//26 7//26
f 25//27 114//27 26//27
f 27//28 29//28 17//28
f 28//29 27//29 114//29
f 38//30 23//30 37//30
f 31//31 30//31 39//31
f 32//32 31//32 40//32
f 42//33 32//33 41//33
f 33//34 34//34 20//34
f 44//35 21//35 34//35
f 22//36 45//36 36//36
f 29//37 36//37 37//37
f 10//38 4//38 3//38
f 10//39 17//39 11//39
f 45//40 37//40 36//40
f 39//41 38//41 46//41
f 40//42 39//42 47//42
f 41//43 40//43 48//43
f 49//44 42//44 41//44
f 51//45 33//45 42//45
f 43//46 44//46 34//46
f 44//47 45//47 35//47
f 46//48 45//48 53//48
f 47//49 46//49 54//49
f 55//50 40//50 47//50
f 49//51 48//51 56//51
f 50//52 58//52 57//52
f 59//53 42//53 50//53
f 60//54 43//54 51//54
f 61//55 44//55 52//55
f 54//56 53//56 61//56
f 55//57 54//57 62//57
f 56//58 55//58 63//58
f 49//59 64//59 58//59
f 57//60 66//60 65//60
f 59//61 57//61 67//61
f 68//62 51//62 59//62
f 60//63 61//63 52//63
f 69//64 54//64 61//64
f 63//65 62//65 70//65
f 56//66 71//66 64//66
f 58//67 72//67 66//67
f 65//68 74//68 73//68
f 67//69 65//69 75//69
f 68//70 67//70 76//70
f 77//71 60//71 68//71
f 70//72 69//72 77//72
f 71//73 70//73 78//73
f 64//74 79//74 72//74
f 66//75 80//75 74//75
f 73//76 82//76 81//76
f 75//77 73//77 83//77
f 76//78 75//78 84//78
f 77//79 76//79 85//79
f 78//80 77//80 85//80
f 71//81 86//81 79//81
f 72//82 87//82 80//82
f 82//83 80//83 88//83
f 81//84 90//84 89//84
f 91//85 73//85 81//85
f 92//86 75//86 83//86
f 93//87 76//87 84//87
f 78//88 93//88 86//88
f 79//89 94//89 87//89
f 80//90 95//90 88//90
f 82//91 96//91 90//91
f 89//92 98//92 97//92
f 91//93 89//93 99//93
f 92//94 91//94 100//94
f 101//95 84//95 92//95
f 86//96 101//96 94//96
f 87//97 102//97 95//97
f 96//98 95//98 103//98
f 90//99 104//99 98//99
f 99//100 97//100 106//100
f 110//101 91//101 99//101
f 101//102 100//102 111//102
f 94//103 111//103 102//103
f 103//104 102//104 112//104
f 96//105 107//105 104//105
f 109//106 110//106 105//106
f 110//107 106//107 105//107
f 107//108 112//108 108//108
f 108//109 113//109 109//109
f 113//110 100//110 110//110
f 102//111 113//111 112//111
f 114//112 115//112 116//112
f 114//113 116//113 117//113
f 114//114 118//114 115//114
f 119//115 116//115 115//115
f 114//116 117//116 121//116
f 120//117 117//117 116//117
f 114//118 123//118 118//118
f 124//119 115//119 118//119
f 119//120 125//120 120//120
f 114//121 121//121 126//121
f 122//122 121//122 117//122
f 120//123 125//123 122//123
f 114//124 128//124 123//124
f 129//125 118//125 123//125
f 124//126 125//126 119//126
f 114//127 126//127 128//127
f 127//128 126//128 121//128
f 122//129 125//129 127//129
f 128//130 129//130 123//130
f 129//131 125//131 124//131
f 130//132 128//132 126//132
f 127//133 125//133 130//133
f 131//134 125//134 129//134
f 130//135 125//135 131//135
f 24//136 26//136 16//136
f 98//137 107//137 109//137
f 2//1 3//1 4//1
f 1//2 4//2 6//2
f 2//3 1//3 7//3
f 6//5 12//5 13//5
f 5//6 14//6 7//6
f 4//7 11//7 15//7
f 15//11 18//11 12//11
f 20//12 13//12 12//12
f 5//13 13//13 21//13
f 16//14 7//14 14//14
f 11//15 17//15 23//15
f 30//18 18//18 15//18
f 31//19 19//19 12//19
f 32//20 33//20 20//20
f 34//21 21//21 13//21
f 14//22 21//22 35//22
f 24//23 16//23 22//23
f 17//24 29//24 37//24
f 29//25 28//25 25//25
f 16//138 26//138 8//138
f 27//28 28//28 29//28
f 38//30 30//30 23//30
f 31//31 18//31 30//31
f 32//32 19//32 31//32
f 42//33 33//33 32//33
f 33//34 43//34 34//34
f 44//35 35//35 21//35
f 22//36 35//36 45//36
f 29//37 24//37 36//37
f 10//38 11//38 4//38
f 10//139 27//139 17//139
f 45//40 38//40 37//40
f 39//41 30//41 38//41
f 40//42 31//42 39//42
f 41//43 32//43 40//43
f 49//44 50//44 42//44
f 51//45 43//45 33//45
f 43//46 52//46 44//46
f 44//47 53//47 45//47
f 46//48 38//48 45//48
f 47//49 39//49 46//49
f 55//50 48//50 40//50
f 49//51 41//51 48//51
f 50//52 49//52 58//52
f 59//53 51//53 42//53
f 60//54 52//54 43//54
f 61//55 53//55 44//55
f 54//56 46//56 53//56
f 55//57 47//57 54//57
f 56//58 48//58 55//58
f 49//59 56//59 64//59
f 57//60 58//60 66//60
f 59//61 50//61 57//61
f 68//62 60//62 51//62
f 60//63 69//63 61//63
f 69//64 62//64 54//64
f 63//65 55//65 62//65
f 56//66 63//66 71//66
f 58//67 64//67 72//67
f 65//68 66//68 74//68
f 67//69 57//69 65//69
f 68//70 59//70 67//70
f 77//71 69//71 60//71
f 70//72 62//72 69//72
f 71//140 63//140 70//140
f 64//74 71//74 79//74
f 66//75 72//75 80//75
f 73//76 74//76 82//76
f 75//77 65//77 73//77
f 76//78 67//78 75//78
f 77//79 68//79 76//79
f 78//80 70//80 77//80
f 71//81 78//81 86//81
f 72//82 79//82 87//82
f 82//83 74//83 80//83
f 81//84 82//84 90//84
f 91//85 83//85 73//85
f 92//86 84//86 75//86
f 93//87 85//87 76//87
f 78//88 85//88 93//88
f 79//89 86//89 94//89
f 80//90 87//90 95//90
f 82//91 88//91 96//91
f 89//92 90//92 98//92
f 91//93 81//93 89//93
f 92//94 83//94 91//94
f 101//95 93//95 84//95
f 86//96 93//96 101//96
f 87//97 94//97 102//97
f 96//98 88//98 95//98
f 90//99 96//99 104//99
f 99//141 89//141 97//141
f 110//101 100//101 91//101
f 101//102 92//102 100//102
f 94//103 101//103 111//103
f 103//104 95//104 102//104
f 96//105 103//105 107//105
f 109//142 113//142 110//142
f 110//143 99//143 106//143
f 107//144 103//144 112//144
f 108//145 112//145 113//145
f 113//110 111//110 100//110
f 102//111 111//111 113//111
f 119//115 120//115 116//115
f 120//117 122//117 117//117
f 124//119 119//119 115//119
f 122//122 127//122 121//122
f 129//125 124//125 118//125
f 127//128 130//128 126//128
f 128//130 131//130 129//130
f 130//132 131//132 128//132
f 24//136 25//136 26//136
f 106//137 97//137 98//137
f 98//137 104//137 107//137
f 107//137 108//137 109//137
f 109//137 105//137 106//137
f 106//137 98//137 109//137
