# Blender v2.76 (sub 0) OBJ File: 'goniec.blend'
# www.blender.org
o Bishop_2_Cylinder.009
v 0.105561 3.020644 0.105457
v 0.149316 3.020644 -0.000178
v -0.000074 3.020644 0.149212
v 0.105561 2.849212 0.105457
v 0.105561 3.020644 -0.105812
v 0.149316 2.849212 -0.000178
v -0.000074 3.106360 -0.000178
v -0.105708 3.020644 0.105457
v -0.000074 2.849212 0.149212
v -0.000074 3.020644 -0.149567
v 0.105561 2.849212 -0.105812
v -0.105708 3.020644 -0.105812
v -0.149463 3.020644 -0.000178
v -0.105708 2.849212 0.105457
v -0.000074 2.849212 -0.149567
v -0.105708 2.849212 -0.105812
v -0.149463 2.849212 -0.000178
v -0.000074 2.763497 -0.000178
v 0.939910 -2.326627 0.939806
v 1.329264 -2.326627 -0.000178
v 0.808857 -2.244918 0.808753
v -0.000074 -2.326627 1.329160
v 1.060586 -2.706740 1.060483
v 1.499926 -2.706740 -0.000178
v 1.060586 -2.706740 -1.060838
v -1.060735 -2.706740 1.060482
v -0.000074 -2.706740 1.499822
v -0.000074 -2.706740 -1.500178
v 0.939910 -2.326627 -0.940161
v 1.143927 -2.244918 -0.000178
v 1.003377 -1.915661 1.003273
v -0.000074 -2.244918 1.143823
v -0.940058 -2.326628 0.939805
v -1.060733 -2.706740 -1.060839
v -1.500074 -2.706740 -0.000179
v -0.000074 -2.326627 -1.329515
v 0.808857 -2.244918 -0.809109
v 1.419020 -1.915661 -0.000178
v 0.727539 -1.646205 0.727435
v -0.000074 -1.915661 1.418916
v -0.809005 -2.244918 0.808752
v -0.940056 -2.326627 -0.940163
v -1.329411 -2.326627 -0.000179
v -0.000074 -2.244918 -1.144179
v 1.003377 -1.915661 -1.003628
v 1.028926 -1.646205 -0.000178
v 0.653948 -1.470340 0.653844
v -0.000074 -1.646205 1.028822
v -1.003525 -1.915661 1.003273
v -0.809003 -2.244918 -0.809110
v -1.144074 -2.244918 -0.000179
v -0.000074 -1.915661 -1.419271
v 0.727539 -1.646205 -0.727791
v 0.924853 -1.470340 -0.000178
v 0.529869 -1.409444 0.529765
v -0.000074 -1.470340 0.924749
v -0.727687 -1.646205 0.727435
v -1.003523 -1.915661 -1.003630
v -1.419168 -1.915661 -0.000179
v -0.000074 -1.646205 -1.029178
v 0.653948 -1.470340 -0.654200
v 0.749379 -1.409444 -0.000178
v 0.361877 0.295340 0.361773
v -0.000074 -1.409444 0.749274
v -0.654096 -1.470340 0.653844
v -0.727686 -1.646205 -0.727792
v -1.029074 -1.646205 -0.000179
v -0.000074 -1.470340 -0.925105
v 0.529869 -1.409444 -0.530121
v 0.511802 0.295340 -0.000178
v 0.625545 0.442340 0.625441
v -0.000074 0.295340 0.511698
v -0.530017 -1.409444 0.529765
v -0.654095 -1.470340 -0.654201
v -0.925000 -1.470340 -0.000179
v -0.000074 -1.409444 -0.749630
v 0.361877 0.295340 -0.362129
v 0.884684 0.442340 -0.000178
v 0.378761 0.599480 0.378657
v -0.000074 0.442340 0.884580
v -0.362025 0.295340 0.361773
v -0.749526 -1.409444 -0.000179
v -0.530016 -1.409444 -0.530121
v -0.000074 0.295340 -0.512054
v 0.625545 0.442340 -0.625796
v 0.535679 0.599480 -0.000178
v 0.439045 0.690455 0.438940
v -0.000074 0.599480 0.535575
v -0.625692 0.442340 0.625440
v -0.511950 0.295340 -0.000178
v -0.362024 0.295340 -0.362129
v -0.000074 0.442340 -0.884936
v 0.378761 0.599480 -0.379012
v 0.620933 0.690455 -0.000178
v 0.549435 0.818202 -0.000178
v 0.388487 0.818202 0.388383
v -0.000074 0.690455 0.620829
v -0.378909 0.599480 0.378656
v -0.884832 0.442340 -0.000179
v -0.625691 0.442340 -0.625797
v -0.000074 0.599480 -0.535931
v 0.439045 0.690455 -0.439296
v 0.745249 1.690449 -0.000178
v 0.549435 2.234740 -0.000178
v 0.398145 2.234740 -0.365424
v -0.000073 2.234740 0.549330
v 0.388487 2.234740 0.388383
v 0.526949 1.690449 0.526845
v 0.388487 0.818202 -0.388739
v -0.000074 0.818202 0.549331
v -0.439192 0.690455 0.438940
v -0.535827 0.599480 -0.000178
v -0.378908 0.599480 -0.379013
v -0.000074 0.690455 -0.621185
v 0.526949 1.690449 -0.527200
v -0.000074 1.690449 0.745145
v -0.000074 0.818202 -0.549686
v -0.388635 0.818202 0.388383
v -0.621081 0.690455 -0.000179
v -0.439191 0.690455 -0.439297
v -0.000074 1.690449 -0.745500
v -0.000074 2.234740 -0.549686
v -0.000074 2.762909 -0.000178
v -0.388635 2.234740 0.388383
v -0.527096 1.690449 0.526845
v -0.388635 0.818202 -0.388739
v -0.549582 0.818202 -0.000178
v -0.527096 1.690449 -0.527200
v -0.388635 2.234740 -0.388739
v -0.549582 2.234740 -0.000178
v -0.745396 1.690449 -0.000178
vt 0.244191 0.264378
vt 0.071522 0.373886
vt 0.000000 0.109509
vt 0.572332 0.127232
vt 0.576400 0.204710
vt 0.549929 0.211913
vt 0.234165 0.654374
vt 0.236578 0.635755
vt 0.243730 0.654374
vt 0.243606 0.614156
vt 0.243606 0.635755
vt 0.234165 0.618307
vt 0.243155 0.688923
vt 0.243155 0.704951
vt 0.233656 0.692754
vt 0.234766 0.592556
vt 0.224693 0.592556
vt 0.224693 0.570051
vt 0.224693 0.609965
vt 0.234165 0.592556
vt 0.234165 0.615215
vt 0.226006 0.517363
vt 0.224693 0.506456
vt 0.239537 0.506457
vt 0.233656 0.669942
vt 0.238718 0.654374
vt 0.243730 0.669942
vt 0.226341 0.528297
vt 0.224693 0.517363
vt 0.239384 0.517363
vt 0.557460 0.935721
vt 0.545300 0.943433
vt 0.545300 0.928009
vt 0.234165 0.610005
vt 0.243606 0.592556
vt 0.224693 0.491033
vt 0.239537 0.491033
vt 0.552423 0.917102
vt 0.241677 0.669942
vt 0.241677 0.688923
vt 0.233656 0.678623
vt 0.226336 0.543720
vt 0.241033 0.528297
vt 0.552423 0.954339
vt 0.243011 0.570051
vt 0.243011 0.591650
vt 0.234766 0.577475
vt 0.226006 0.480126
vt 0.240851 0.480126
vt 0.562496 0.917102
vt 0.226331 0.554627
vt 0.224693 0.543720
vt 0.239391 0.543720
vt 0.562496 0.954339
vt 0.226331 0.570051
vt 0.241030 0.554627
vt 0.569619 0.928009
vt 0.569619 0.943433
vt 0.308051 0.308249
vt 0.381298 0.308249
vt 0.389490 0.331348
vt 0.433092 0.224730
vt 0.449675 0.234298
vt 0.632121 0.000000
vt 0.667200 0.013968
vt 0.658698 0.150597
vt 0.631542 0.855884
vt 0.640112 0.954873
vt 0.605028 0.971090
vt 0.137199 0.969858
vt 0.106845 0.961048
vt 0.106845 0.823799
vt 0.667200 0.249327
vt 0.632121 0.265575
vt 0.640112 0.719265
vt 0.595359 0.859393
vt 0.256257 0.224730
vt 0.304376 0.331348
vt 0.418335 0.784569
vt 0.409259 0.930424
vt 0.387162 0.912935
vt 0.570209 0.211913
vt 0.570209 0.317261
vt 0.536429 0.322167
vt 0.433092 0.106617
vt 0.559535 0.352617
vt 0.544955 0.449666
vt 0.509169 0.440856
vt 0.544955 0.586915
vt 0.559535 0.683964
vt 0.525620 0.705234
vt 0.256257 0.106617
vt 0.244191 0.234298
vt 0.364406 0.796626
vt 0.386798 0.782425
vt 0.386798 0.928941
vt 0.447358 0.809032
vt 0.440776 0.914793
vt 0.500296 0.927435
vt 0.463976 0.913197
vt 0.463976 0.809604
vt 0.663858 0.564228
vt 0.632020 0.582193
vt 0.624734 0.436103
vt 0.449675 0.097049
vt 0.381298 0.023098
vt 0.509169 0.595725
vt 0.308051 0.023098
vt 0.244191 0.097049
vt 0.251565 0.793299
vt 0.275373 0.782425
vt 0.266226 0.928269
vt 0.180170 0.981034
vt 0.180170 0.877441
vt 0.205689 0.847499
vt 0.463976 0.816853
vt 0.458060 0.911918
vt 0.463976 0.980612
vt 0.447358 0.991217
vt 0.624734 0.371158
vt 0.599337 0.470026
vt 0.559535 0.467696
vt 0.632020 0.331348
vt 0.663859 0.362009
vt 0.304376 0.000000
vt 0.321054 0.804772
vt 0.340404 0.782425
vt 0.364406 0.924257
vt 0.304431 0.807024
vt 0.297798 0.912778
vt 0.315092 0.909941
vt 0.321054 0.978815
vt 0.290001 0.540023
vt 0.337986 0.540023
vt 0.345287 0.561893
vt 0.371917 0.485309
vt 0.387162 0.494367
vt 0.224693 0.474754
vt 0.224693 0.379259
vt 0.238360 0.373886
vt 0.624734 0.566044
vt 0.594560 0.600115
vt 0.144033 0.443073
vt 0.167113 0.428872
vt 0.167113 0.575387
vt 0.205689 0.960423
vt 0.205689 0.856830
vt 0.231208 0.847499
vt 0.321054 0.814884
vt 0.256070 0.485309
vt 0.286066 0.561893
vt 0.086662 0.601758
vt 0.064402 0.830170
vt 0.030041 0.825157
vt 0.036353 0.594419
vt 0.005212 0.830170
vt 0.371917 0.407931
vt 0.387162 0.398873
vt 0.208807 0.373886
vt 0.224693 0.386857
vt 0.214548 0.454382
vt 0.197521 0.449009
vt 0.197521 0.555249
vt 0.214548 0.549877
vt 0.224693 0.617402
vt 0.208807 0.630372
vt 0.256070 0.407931
vt 0.244191 0.494367
vt 0.486123 0.000000
vt 0.479741 0.230685
vt 0.454846 0.235738
vt 0.030351 0.510577
vt 0.054758 0.547947
vt 0.042186 0.594419
vt 0.030351 0.457728
vt 0.000000 0.529827
vt 0.086662 0.814989
vt 0.094672 0.594419
vt 0.129189 0.594419
vt 0.337986 0.353217
vt 0.290001 0.353217
vt 0.244191 0.398873
vt 0.536429 0.007397
vt 0.514099 0.235738
vt 0.089275 0.547947
vt 0.101847 0.594419
vt 0.284248 0.782425
vt 0.291077 0.738929
vt 0.325380 0.738929
vt 0.380953 0.717833
vt 0.340896 0.782425
vt 0.054758 0.420358
vt 0.000000 0.438479
vt 0.387162 0.557972
vt 0.406500 0.331348
vt 0.430907 0.339944
vt 0.345287 0.331348
vt 0.473434 0.570558
vt 0.465424 0.339944
vt 0.489831 0.331348
vt 0.113682 0.510577
vt 0.144033 0.529826
vt 0.244191 0.717833
vt 0.266822 0.699816
vt 0.068611 0.840795
vt 0.032485 0.840795
vt 0.029610 0.830170
vt 0.094157 0.879908
vt 0.071486 0.830170
vt 0.380953 0.626485
vt 0.349636 0.699816
vt 0.042186 0.373886
vt 0.101847 0.373886
vt 0.422897 0.570558
vt 0.113682 0.457728
vt 0.144033 0.438479
vt 0.244191 0.626485
vt 0.266822 0.644502
vt 0.006939 0.879908
vt 0.000000 0.875507
vt 0.580704 0.000000
vt 0.622527 0.003218
vt 0.619502 0.021829
vt 0.586181 0.912759
vt 0.547583 0.910294
vt 0.545166 0.832362
vt 0.492558 0.570558
vt 0.508496 0.644338
vt 0.472958 0.656854
vt 0.622527 0.131094
vt 0.582495 0.018982
vt 0.556024 0.026185
vt 0.550789 0.008140
vt 0.186637 0.630372
vt 0.222764 0.630372
vt 0.225638 0.644393
vt 0.340896 0.561893
vt 0.349636 0.644502
vt 0.089275 0.420358
vt 0.284248 0.561893
vt 0.291077 0.605389
vt 0.006939 0.935222
vt 0.000000 0.939623
vt 0.523545 0.713419
vt 0.553538 0.705234
vt 0.555310 0.724227
vt 0.662278 0.807493
vt 0.640112 0.788689
vt 0.662278 0.705234
vt 0.522636 0.917102
vt 0.509169 0.842186
vt 0.596589 0.668160
vt 0.629191 0.600115
vt 0.629191 0.692007
vt 0.229829 0.779834
vt 0.223227 0.847499
vt 0.186173 0.847499
vt 0.613407 0.207558
vt 0.528769 0.731470
vt 0.144033 0.847499
vt 0.180170 0.847499
vt 0.172436 0.967487
vt 0.186173 0.659688
vt 0.183763 0.644393
vt 0.094157 0.935222
vt 0.101096 0.939624
vt 0.071486 0.984961
vt 0.325380 0.605389
vt 0.032485 0.974335
vt 0.029610 0.984961
vt 0.595359 0.708511
vt 0.592315 0.727127
vt 0.449675 0.320662
vt 0.468807 0.235738
vt 0.488306 0.320662
vt 0.525360 0.323141
vt 0.488306 0.323141
vt 0.506833 0.235738
vt 0.595359 0.836295
vt 0.223227 0.659688
vt 0.179571 0.779834
vt 0.429302 0.765749
vt 0.426892 0.784569
vt 0.397281 0.774141
vt 0.068611 0.974335
vt 0.492558 0.756521
vt 0.498378 0.774141
vt 0.468767 0.784569
vt 0.559535 0.685283
vt 0.578062 0.600115
vt 0.596589 0.685283
vt 0.629191 0.682285
vt 0.652678 0.600115
vt 0.652678 0.702318
vt 0.509169 1.000000
vt 0.535029 0.917102
vt 0.545300 1.000000
vt 0.159972 0.652292
vt 0.466357 0.765749
vt 0.570209 0.297005
vt 0.588736 0.211913
vt 0.607263 0.297005
vt 0.422700 0.656854
vt 0.387162 0.644338
vt 0.403101 0.570558
vt 0.429302 0.579786
vt 0.466356 0.579786
vt 0.071522 0.000000
vt 0.172669 0.000000
vt 0.244191 0.109509
vt 0.172669 0.373886
vt 0.000000 0.264378
vt 0.536429 0.137002
vt 0.234766 0.570051
vt 0.240851 0.517363
vt 0.241027 0.543720
vt 0.241030 0.570051
vt 0.622527 0.154171
vt 0.137199 0.814989
vt 0.605028 0.705234
vt 0.394479 0.795355
vt 0.536429 0.237240
vt 0.525621 0.331348
vt 0.364406 0.914740
vt 0.500296 0.784569
vt 0.657985 0.446458
vt 0.389490 0.000000
vt 0.244191 0.910871
vt 0.205689 0.990365
vt 0.594559 0.331348
vt 0.340404 0.919109
vt 0.304431 0.989402
vt 0.238360 0.480126
vt 0.144033 0.561186
vt 0.231208 0.990364
vt 0.000000 0.601758
vt 0.449675 0.007397
vt 0.286066 0.331348
vt 0.509169 0.557972
vt 0.101096 0.875507
vt 0.145793 0.967487
vt 0.403101 0.756521
vt 0.144033 0.769802
vn 0.000000 -1.000000 0.000000
vn 0.363100 0.315400 0.876700
vn 0.487400 0.849500 0.201900
vn 0.201900 0.849500 0.487400
vn 0.487400 0.849500 -0.201900
vn 0.923900 0.000000 0.382700
vn -0.201900 0.849500 0.487400
vn 0.382700 0.000000 0.923900
vn 0.201900 0.849500 -0.487400
vn 0.923900 0.000000 -0.382700
vn 0.487400 -0.849500 0.201900
vn -0.487400 0.849500 0.201900
vn -0.382700 0.000000 0.923900
vn 0.201900 -0.849500 0.487400
vn -0.201900 0.849500 -0.487400
vn 0.382700 0.000000 -0.923900
vn 0.487400 -0.849500 -0.201900
vn -0.487400 0.849500 -0.201900
vn -0.923900 0.000000 0.382700
vn -0.201900 -0.849500 0.487400
vn -0.382700 0.000000 -0.923900
vn 0.201900 -0.849500 -0.487400
vn -0.923900 0.000000 -0.382700
vn -0.487400 -0.849500 0.201900
vn -0.201900 -0.849500 -0.487400
vn -0.487400 -0.849500 -0.201900
vn 0.397900 0.902500 0.164800
vn 0.164800 0.902500 0.397900
vn 0.853400 0.383100 0.353500
vn 0.853400 0.383100 -0.353500
vn -0.353500 0.383100 0.853400
vn 0.353500 0.383100 0.853400
vn 0.353500 0.383100 -0.853400
vn 0.397900 0.902500 -0.164800
vn 0.731300 -0.611000 0.302900
vn 0.302900 -0.611000 0.731300
vn -0.164800 0.902500 0.397900
vn -0.853400 0.383100 0.353500
vn -0.353500 0.383100 -0.853400
vn 0.164800 0.902500 -0.397900
vn 0.731300 -0.611000 -0.302900
vn 0.553200 0.800900 0.229200
vn 0.229200 0.800900 0.553200
vn -0.302900 -0.611000 0.731300
vn -0.397900 0.902500 0.164800
vn -0.853400 0.383100 -0.353500
vn -0.164800 0.902500 -0.397900
vn 0.302900 -0.611000 -0.731300
vn 0.553200 0.800900 -0.229200
vn 0.810600 0.479700 0.335800
vn 0.335800 0.479700 0.810600
vn -0.229200 0.800900 0.553200
vn -0.731300 -0.611000 0.302900
vn -0.397900 0.902500 -0.164800
vn -0.302900 -0.611000 -0.731300
vn 0.229200 0.800900 -0.553200
vn 0.810600 0.479700 -0.335800
vn 0.324900 0.936100 0.134600
vn 0.134600 0.936100 0.324900
vn -0.335800 0.479700 0.810600
vn -0.553200 0.800900 0.229100
vn -0.731300 -0.611000 -0.302900
vn -0.229100 0.800900 -0.553200
vn 0.335800 0.479700 -0.810600
vn 0.324900 0.936100 -0.134600
vn 0.916300 0.127700 0.379600
vn 0.379600 0.127700 0.916300
vn -0.134600 0.936100 0.324900
vn -0.810600 0.479700 0.335800
vn -0.553200 0.800900 -0.229200
vn -0.335800 0.479700 -0.810600
vn 0.134600 0.936100 -0.324900
vn 0.916300 0.127700 -0.379600
vn 0.362600 -0.919800 0.150200
vn 0.150200 -0.919800 0.362600
vn -0.379600 0.127700 0.916300
vn -0.324900 0.936100 0.134600
vn -0.810600 0.479700 -0.335800
vn -0.134600 0.936100 -0.324900
vn 0.379600 0.127700 -0.916300
vn 0.362600 -0.919800 -0.150200
vn 0.404700 0.898900 0.167700
vn 0.167700 0.898900 0.404700
vn -0.150200 -0.919800 0.362600
vn -0.916300 0.127700 0.379500
vn -0.324900 0.936100 -0.134600
vn -0.379500 0.127700 -0.916300
vn 0.150200 -0.919800 -0.362600
vn 0.404700 0.898900 -0.167700
vn 0.698500 -0.654500 0.289300
vn 0.289300 -0.654500 0.698500
vn -0.167700 0.898900 0.404700
vn -0.362600 -0.919800 0.150200
vn -0.916300 0.127700 -0.379600
vn -0.150200 -0.919800 -0.362600
vn 0.167700 0.898900 -0.404700
vn 0.698500 -0.654500 -0.289300
vn 0.820700 0.459300 0.339900
vn 0.394000 0.346300 -0.851400
vn -0.363100 0.315400 -0.876700
vn 0.904600 -0.203100 0.374700
vn 0.339900 0.459300 0.820700
vn -0.289300 -0.654500 0.698500
vn -0.404700 0.898900 0.167700
vn -0.362600 -0.919800 -0.150200
vn -0.167700 0.898900 -0.404700
vn 0.289300 -0.654500 -0.698500
vn 0.820700 0.459300 -0.339900
vn 0.666400 0.692600 -0.276000
vn 0.876700 0.315400 -0.363100
vn 0.276000 0.692600 0.666400
vn -0.363100 0.315400 0.876700
vn 0.876700 0.315400 0.363100
vn 0.904600 -0.203100 -0.374700
vn 0.374700 -0.203100 0.904600
vn -0.339900 0.459300 0.820700
vn -0.698500 -0.654500 0.289300
vn -0.404700 0.898900 -0.167700
vn -0.289300 -0.654500 -0.698500
vn 0.339900 0.459300 -0.820700
vn 0.305300 0.686500 -0.659900
vn -0.276000 0.692600 0.666400
vn 0.374700 -0.203100 -0.904600
vn -0.374700 -0.203100 0.904600
vn -0.820700 0.459300 0.339900
vn -0.698500 -0.654500 -0.289300
vn -0.339900 0.459300 -0.820700
vn 0.666400 0.692600 0.276000
vn -0.275900 0.693000 -0.666100
vn -0.666100 0.693000 0.275900
vn -0.374700 -0.203100 -0.904600
vn -0.904600 -0.203100 0.374700
vn -0.820700 0.459300 -0.339900
vn -0.666100 0.693000 -0.275900
vn -0.876700 0.315400 0.363100
vn -0.904600 -0.203100 -0.374700
vn -0.876700 0.315400 -0.363200
vn 0.363100 0.315400 -0.876700
vn -0.876700 0.315400 0.363200
vn -0.876700 0.315400 -0.363100
s off
f 25/1/1 23/2/1 26/3/1
f 108/4/2 107/5/2 106/6/2
f 2/7/3 7/8/3 1/9/3
f 1/10/4 7/11/4 3/12/4
f 5/13/5 7/14/5 2/15/5
f 2/16/6 1/17/6 4/18/6
f 3/19/7 7/20/7 8/21/7
f 1/22/8 3/23/8 9/24/8
f 10/25/9 7/26/9 5/27/9
f 5/28/10 2/29/10 6/30/10
f 18/31/11 6/32/11 4/33/11
f 8/34/12 7/35/12 13/10/12
f 3/23/13 8/36/13 14/37/13
f 18/31/14 4/33/14 9/38/14
f 12/39/15 7/40/15 10/41/15
f 10/42/16 5/28/16 11/43/16
f 18/31/17 11/44/17 6/32/17
f 13/45/18 7/46/18 12/47/18
f 8/36/19 13/48/19 17/49/19
f 18/31/20 9/38/20 14/50/20
f 12/51/21 10/52/21 15/53/21
f 18/31/22 15/54/22 11/44/22
f 13/55/23 12/51/23 16/56/23
f 18/31/24 14/50/24 17/57/24
f 18/31/25 16/58/25 15/54/25
f 18/31/26 17/57/26 16/58/26
f 30/59/27 21/60/27 19/61/27
f 21/60/28 32/62/28 22/63/28
f 24/64/29 20/65/29 19/66/29
f 29/67/30 20/68/30 24/69/30
f 27/70/31 22/71/31 33/72/31
f 19/66/32 22/73/32 27/74/32
f 36/75/33 29/67/33 25/76/33
f 37/77/34 30/59/34 20/78/34
f 38/79/35 31/80/35 21/81/35
f 31/82/36 40/83/36 32/84/36
f 22/63/37 32/62/37 41/85/37
f 33/86/38 43/87/38 35/88/38
f 42/89/39 36/90/39 28/91/39
f 44/92/40 37/77/40 29/93/40
f 37/94/41 45/95/41 38/96/41
f 46/97/42 39/98/42 31/80/42
f 31/99/43 39/100/43 48/101/43
f 32/102/44 40/103/44 49/104/44
f 33/105/45 41/85/45 51/106/45
f 43/87/46 42/89/46 34/107/46
f 50/108/47 44/92/47 36/109/47
f 44/110/48 52/111/48 45/112/48
f 53/113/49 46/114/49 38/115/49
f 46/97/50 54/116/50 47/117/50
f 47/117/51 56/118/51 48/119/51
f 48/120/52 57/121/52 49/122/52
f 49/104/53 59/123/53 51/124/53
f 51/106/54 50/108/54 42/125/54
f 50/126/55 58/127/55 52/128/55
f 52/111/56 60/129/56 53/130/56
f 53/130/57 61/131/57 54/132/57
f 62/133/58 55/134/58 47/135/58
f 55/134/59 64/136/59 56/137/59
f 56/138/60 65/139/60 57/140/60
f 57/121/61 67/141/61 59/142/61
f 51/143/62 59/144/62 58/145/62
f 66/146/63 60/147/63 52/148/63
f 68/149/64 61/131/64 53/130/64
f 69/150/65 62/133/65 54/151/65
f 62/152/66 70/153/66 63/154/66
f 55/155/67 63/154/67 72/156/67
f 64/136/68 73/157/68 65/158/68
f 57/159/69 65/160/69 75/161/69
f 67/162/70 66/163/70 58/145/70
f 74/164/71 68/165/71 60/166/71
f 76/167/72 69/150/72 61/168/72
f 69/169/73 77/170/73 70/171/73
f 63/172/74 70/173/74 78/174/74
f 72/175/75 63/172/75 71/176/75
f 64/177/76 72/178/76 81/179/76
f 65/158/77 73/157/77 82/180/77
f 75/161/78 74/164/78 66/163/78
f 83/181/79 76/167/79 68/182/79
f 76/183/80 84/184/80 77/170/80
f 77/185/81 85/186/81 78/174/81
f 78/187/82 86/188/82 79/189/82
f 80/190/83 71/191/83 79/189/83
f 81/192/84 72/175/84 80/193/84
f 73/194/85 81/195/85 90/196/85
f 75/197/86 82/180/86 83/181/86
f 83/198/87 91/199/87 84/200/87
f 84/201/88 92/202/88 85/186/88
f 85/203/89 93/204/89 86/188/89
f 79/205/90 86/206/90 94/207/90
f 88/208/91 79/205/91 87/209/91
f 89/210/92 80/190/92 88/211/92
f 81/192/93 89/212/93 99/213/93
f 83/198/94 82/214/94 90/196/94
f 91/215/95 100/216/95 92/202/95
f 92/217/96 101/218/96 93/204/96
f 93/219/97 102/220/97 94/207/97
f 87/221/98 94/222/98 95/223/98
f 122/224/99 105/225/99 115/226/99
f 122/227/100 121/228/100 128/229/100
f 103/230/101 108/4/101 96/231/101
f 110/232/102 97/233/102 87/221/102
f 98/234/103 88/235/103 97/236/103
f 99/237/104 89/210/104 98/238/104
f 90/239/105 99/213/105 100/216/105
f 100/240/106 113/241/106 101/218/106
f 101/242/107 114/243/107 102/220/107
f 94/244/108 102/245/108 109/246/108
f 104/247/109 105/248/109 18/249/109
f 105/225/110 104/250/110 103/251/110
f 107/252/111 18/253/111 106/254/111
f 116/255/112 106/256/112 124/257/112
f 104/258/113 107/5/113 108/4/113
f 115/226/114 103/251/114 95/259/114
f 108/260/115 116/261/115 110/262/115
f 118/263/116 111/264/116 97/236/116
f 98/265/117 111/266/117 119/267/117
f 99/237/118 112/268/118 113/241/118
f 101/242/119 113/269/119 120/270/119
f 102/245/120 114/271/120 117/272/120
f 122/273/121 123/274/121 105/275/121
f 124/276/122 106/277/122 18/278/122
f 121/279/123 115/226/123 109/246/123
f 110/280/124 116/255/124 125/281/124
f 127/282/125 119/283/125 111/284/125
f 112/285/126 119/267/126 120/270/126
f 117/286/127 114/287/127 120/288/127
f 104/289/128 18/290/128 107/291/128
f 129/292/129 123/293/129 122/294/129
f 124/295/130 123/296/130 130/297/130
f 128/229/131 121/228/131 117/286/131
f 127/298/132 118/263/132 125/281/132
f 126/299/133 120/288/133 119/283/133
f 130/300/134 123/301/134 129/302/134
f 131/303/135 125/304/135 124/305/135
f 131/303/136 128/229/136 126/299/136
f 130/306/137 129/307/137 128/229/137
f 26/3/1 35/308/1 25/1/1
f 34/309/1 28/310/1 25/1/1
f 25/1/1 24/311/1 23/2/1
f 23/2/1 27/312/1 26/3/1
f 35/308/1 34/309/1 25/1/1
f 116/313/2 108/4/2 106/6/2
f 6/314/6 2/16/6 4/18/6
f 4/315/8 1/22/8 9/24/8
f 11/43/10 5/28/10 6/30/10
f 9/24/13 3/23/13 14/37/13
f 15/316/16 10/42/16 11/43/16
f 14/37/19 8/36/19 17/49/19
f 16/56/21 12/51/21 15/53/21
f 17/317/23 13/55/23 16/56/23
f 20/78/27 30/59/27 19/61/27
f 19/61/28 21/60/28 22/63/28
f 23/318/29 24/64/29 19/66/29
f 25/76/30 29/67/30 24/69/30
f 26/319/31 27/70/31 33/72/31
f 23/318/32 19/66/32 27/74/32
f 28/320/33 36/75/33 25/76/33
f 29/93/34 37/77/34 20/78/34
f 30/321/35 38/79/35 21/81/35
f 21/322/36 31/82/36 32/84/36
f 33/105/37 22/63/37 41/85/37
f 26/323/38 33/86/38 35/88/38
f 34/107/39 42/89/39 28/91/39
f 36/109/40 44/92/40 29/93/40
f 30/324/41 37/94/41 38/96/41
f 38/79/42 46/97/42 31/80/42
f 40/325/43 31/99/43 48/101/43
f 41/326/44 32/102/44 49/104/44
f 43/327/45 33/105/45 51/106/45
f 35/88/46 43/87/46 34/107/46
f 42/125/47 50/108/47 36/109/47
f 37/328/48 44/110/48 45/112/48
f 45/329/49 53/113/49 38/115/49
f 39/98/50 46/97/50 47/117/50
f 39/98/51 47/117/51 48/119/51
f 40/330/52 48/120/52 49/122/52
f 41/326/53 49/104/53 51/124/53
f 43/327/54 51/106/54 42/125/54
f 44/331/55 50/126/55 52/128/55
f 45/112/56 52/111/56 53/130/56
f 46/332/57 53/130/57 54/132/57
f 54/151/58 62/133/58 47/135/58
f 47/135/59 55/134/59 56/137/59
f 48/333/60 56/138/60 57/140/60
f 49/122/61 57/121/61 59/142/61
f 50/334/62 51/143/62 58/145/62
f 58/335/63 66/146/63 52/148/63
f 60/129/64 68/149/64 53/130/64
f 61/168/65 69/150/65 54/151/65
f 55/155/66 62/152/66 63/154/66
f 64/336/67 55/155/67 72/156/67
f 56/137/68 64/136/68 65/158/68
f 67/162/69 57/159/69 75/161/69
f 59/144/70 67/162/70 58/145/70
f 66/163/71 74/164/71 60/166/71
f 68/182/72 76/167/72 61/168/72
f 62/337/73 69/169/73 70/171/73
f 71/176/74 63/172/74 78/174/74
f 80/193/75 72/175/75 71/176/75
f 73/319/76 64/177/76 81/179/76
f 75/197/77 65/158/77 82/180/77
f 67/162/78 75/161/78 66/163/78
f 74/338/79 83/181/79 68/182/79
f 69/169/80 76/183/80 77/170/80
f 70/173/81 77/185/81 78/174/81
f 71/191/82 78/187/82 79/189/82
f 88/211/83 80/190/83 79/189/83
f 89/212/84 81/192/84 80/193/84
f 82/214/85 73/194/85 90/196/85
f 74/338/86 75/197/86 83/181/86
f 76/339/87 83/198/87 84/200/87
f 77/185/88 84/201/88 85/186/88
f 78/187/89 85/203/89 86/188/89
f 87/209/90 79/205/90 94/207/90
f 97/340/91 88/208/91 87/209/91
f 98/238/92 89/210/92 88/211/92
f 90/239/93 81/192/93 99/213/93
f 91/199/94 83/198/94 90/196/94
f 84/201/95 91/215/95 92/202/95
f 85/203/96 92/217/96 93/204/96
f 86/206/97 93/219/97 94/207/97
f 96/231/98 87/221/98 95/223/98
f 121/279/138 122/224/138 115/226/138
f 129/307/100 122/227/100 128/229/100
f 95/223/101 103/230/101 96/231/101
f 96/231/102 110/232/102 87/221/102
f 111/264/103 98/234/103 97/236/103
f 112/268/104 99/237/104 98/238/104
f 91/215/105 90/239/105 100/216/105
f 92/217/106 100/240/106 101/218/106
f 93/219/107 101/242/107 102/220/107
f 95/259/108 94/244/108 109/246/108
f 115/226/110 105/225/110 103/251/110
f 125/281/112 116/255/112 124/257/112
f 103/230/113 104/258/113 108/4/113
f 109/246/114 115/226/114 95/259/114
f 96/341/115 108/260/115 110/262/115
f 110/280/116 118/263/116 97/236/116
f 112/285/117 98/265/117 119/267/117
f 100/240/118 99/237/118 113/241/118
f 114/243/119 101/242/119 120/270/119
f 109/246/120 102/245/120 117/272/120
f 117/272/123 121/279/123 109/246/123
f 118/263/124 110/280/124 125/281/124
f 118/342/125 127/282/125 111/284/125
f 113/269/126 112/285/126 120/270/126
f 126/299/127 117/286/127 120/288/127
f 126/299/131 128/229/131 117/286/131
f 131/343/132 127/298/132 125/281/132
f 127/282/133 126/299/133 119/283/133
f 130/306/139 131/303/139 124/305/139
f 127/282/136 131/303/136 126/299/136
f 131/303/140 130/306/140 128/229/140
