# Blender v2.79 (sub 0) OBJ File: 'goniec.blend'
# www.blender.org
o Bishop_2_Cylinder.009
v -20.345566 5.899465 8.740724
v -20.084480 6.629710 8.740724
v -19.869883 6.629710 8.222642
v -20.054499 5.899465 8.038027
v -20.084480 4.729220 8.740724
v -19.869883 4.729220 8.222642
v -20.054499 5.899465 9.443420
v -19.869883 6.629710 9.258805
v -19.351803 7.338325 8.740724
v -19.351803 6.629710 8.008045
v -19.351803 5.899465 7.746960
v -19.937292 4.557829 8.155231
v -20.179811 4.557829 8.740722
v -19.869883 4.729220 9.258805
v -19.351803 4.729220 8.008045
v -19.351803 5.899465 9.734487
v -18.649105 5.899465 8.038027
v -19.351803 4.557829 7.912713
v -19.856915 4.435772 8.235609
v -20.066139 4.435772 8.740723
v -19.937294 4.557829 9.326214
v -19.351803 4.729220 9.473401
v -18.833721 4.729220 8.222642
v -18.649105 5.899465 9.443420
v -18.833721 6.629710 9.258805
v -19.351801 6.629710 9.473401
v -18.820843 6.629710 8.253728
v -18.619123 6.629710 8.740724
v -18.358038 5.899465 8.740724
v -18.766312 4.557829 8.155231
v -19.351803 4.435772 8.026385
v -20.185959 4.224946 7.906564
v -20.531479 4.224946 8.740722
v -19.856915 4.435772 9.245835
v -19.351803 4.557829 9.568732
v -18.833721 4.729220 9.258805
v -18.619123 4.729220 8.740724
v -18.523792 4.557829 8.740723
v -18.846689 4.435772 8.235610
v -19.351803 4.224946 7.561046
v -19.834402 4.027724 8.258121
v -20.034304 4.027724 8.740723
v -20.185961 4.224946 9.574881
v -19.351803 4.435772 9.455060
v -18.766312 4.557829 9.326214
v -18.637465 4.435772 8.740723
v -18.517643 4.224946 7.906565
v -19.351801 4.027724 8.058222
v -20.058392 1.740510 8.034132
v -20.351072 1.740510 8.740722
v -19.834404 4.027724 9.223324
v -19.351803 4.224946 9.920401
v -18.846689 4.435772 9.245835
v -18.172125 4.224946 8.740723
v -18.869200 4.027724 8.258121
v -19.351803 1.740510 7.741453
v -20.585037 1.658809 8.740722
v -20.223829 1.658809 7.868692
v -20.058392 1.740510 9.447313
v -19.351803 4.027724 9.423224
v -18.517643 4.224946 9.574881
v -18.669300 4.027724 8.740723
v -18.645210 1.740510 8.034133
v -19.351803 1.658809 7.507487
v -20.723803 1.422860 8.740722
v -20.321951 1.422860 7.770571
v -20.223831 1.658809 9.612752
v -19.351803 1.740510 9.739993
v -18.869200 4.027724 9.223324
v -18.352531 1.740510 8.740723
v -18.479773 1.658809 7.868694
v -19.351803 1.422860 7.368723
v -21.243927 1.061347 8.740722
v -20.689735 1.061347 7.402787
v -20.321953 1.422860 9.710873
v -19.351803 1.658809 9.973959
v -18.645210 1.740510 9.447313
v -18.118567 1.658809 8.740723
v -18.381651 1.422860 7.770573
v -19.351803 1.061347 6.848598
v -20.877136 0.619601 8.740722
v -20.430374 0.619601 7.662148
v -20.689737 1.061347 10.078657
v -19.351803 1.422860 10.112723
v -18.479773 1.658809 9.612752
v -17.979801 1.422860 8.740723
v -18.013868 1.061347 7.402789
v -19.351803 0.619601 7.215388
v -21.124252 0.509975 8.740722
v -20.605112 0.509975 7.487410
v -20.430376 0.619601 9.819297
v -19.351803 1.061347 10.632849
v -18.381651 1.422860 9.710874
v -17.459677 1.061347 8.740723
v -18.273228 0.619601 7.662148
v -19.351803 0.509975 6.968273
v -21.351803 -0.000000 8.740722
v -20.766014 -0.000000 7.326508
v -20.605114 0.509975 9.994034
v -19.351803 0.619601 10.266058
v -18.013868 1.061347 10.078658
v -17.826468 0.619601 8.740723
v -18.098490 0.509975 7.487411
v -19.351803 -0.000000 6.740723
v -19.351803 -0.000000 10.740724
v -20.766016 -0.000000 10.154936
v -17.937588 -0.000000 7.326509
v -17.351803 -0.000000 8.740723
v -17.937588 -0.000000 10.154937
v -19.351803 0.509975 10.513174
v -18.273228 0.619601 9.819298
v -17.579351 0.509975 8.740723
v -18.098490 0.509975 9.994035
v -19.351803 7.339115 8.740724
v -19.550987 7.454114 8.740724
v -19.492647 7.454114 8.599877
v -19.351803 7.454114 8.541537
v -19.492647 7.454114 8.881569
v -19.550987 7.684114 8.740724
v -19.492647 7.684114 8.599877
v -19.210957 7.454114 8.599877
v -19.351803 7.684114 8.541537
v -19.351803 7.454114 8.939909
v -19.492647 7.684114 8.881569
v -19.351803 7.799115 8.740724
v -19.152617 7.454114 8.740724
v -19.210957 7.684114 8.599877
v -19.210957 7.454114 8.881569
v -19.351803 7.684114 8.939909
v -19.152617 7.684114 8.740724
v -19.210957 7.684114 8.881569
vt 0.429302 0.579786
vt 0.472958 0.656854
vt 0.422700 0.656854
vt 0.466357 0.765749
vt 0.429302 0.765749
vt 0.403101 0.570558
vt 0.570209 0.297005
vt 0.588736 0.211913
vt 0.607263 0.297005
vt 0.426892 0.784569
vt 0.159972 0.652292
vt 0.179571 0.779834
vt 0.144033 0.769802
vt 0.492558 0.756521
vt 0.509169 1.000000
vt 0.535029 0.917102
vt 0.545300 1.000000
vt 0.629191 0.682285
vt 0.652678 0.600115
vt 0.652678 0.702318
vt 0.559535 0.685283
vt 0.578062 0.600115
vt 0.596589 0.685283
vt 0.468767 0.784569
vt 0.032485 0.974335
vt 0.071486 0.984961
vt 0.029610 0.984961
vt 0.397281 0.774141
vt 0.403101 0.756521
vt 0.229829 0.779834
vt 0.186173 0.659688
vt 0.223227 0.659688
vt 0.595359 0.836295
vt 0.555310 0.724227
vt 0.592315 0.727127
vt 0.525360 0.323141
vt 0.488306 0.323141
vt 0.506833 0.235738
vt 0.449675 0.320662
vt 0.468807 0.235738
vt 0.488306 0.320662
vt 0.553538 0.705234
vt 0.000000 0.939623
vt 0.006939 0.935222
vt 0.340896 0.561893
vt 0.291077 0.605389
vt 0.284248 0.561893
vt 0.094157 0.935222
vt 0.068611 0.974335
vt 0.225638 0.644393
vt 0.145793 0.967487
vt 0.180170 0.847499
vt 0.172436 0.967487
vt 0.545166 0.832362
vt 0.528769 0.731470
vt 0.613407 0.207558
vt 0.572332 0.127232
vt 0.622527 0.131094
vt 0.186173 0.847499
vt 0.596589 0.668160
vt 0.629191 0.600115
vt 0.629191 0.692007
vt 0.547583 0.910294
vt 0.509169 0.842186
vt 0.662278 0.807493
vt 0.640112 0.788689
vt 0.662278 0.705234
vt 0.523545 0.713419
vt 0.000000 0.875507
vt 0.006939 0.879908
vt 0.244191 0.626485
vt 0.266822 0.644502
vt 0.089275 0.420358
vt 0.144033 0.438479
vt 0.113682 0.457728
vt 0.349636 0.644502
vt 0.325380 0.605389
vt 0.222764 0.630372
vt 0.183763 0.644393
vt 0.186637 0.630372
vt 0.550789 0.008140
vt 0.582495 0.018982
vt 0.556024 0.026185
vt 0.619502 0.021829
vt 0.492558 0.570558
vt 0.466356 0.579786
vt 0.586181 0.912759
vt 0.580704 0.000000
vt 0.029610 0.830170
vt 0.032485 0.840795
vt 0.266822 0.699816
vt 0.244191 0.717833
vt 0.144033 0.529826
vt 0.113682 0.510577
vt 0.422897 0.570558
vt 0.465424 0.339944
vt 0.473434 0.570558
vt 0.054758 0.420358
vt 0.101847 0.373886
vt 0.380953 0.626485
vt 0.349636 0.699816
vt 0.094157 0.879908
vt 0.071486 0.830170
vt 0.101096 0.875507
vt 0.068611 0.840795
vt 0.291077 0.738929
vt 0.284248 0.782425
vt 0.101847 0.594419
vt 0.089275 0.547947
vt 0.489831 0.331348
vt 0.509169 0.557972
vt 0.337986 0.353217
vt 0.286066 0.331348
vt 0.345287 0.331348
vt 0.387162 0.557972
vt 0.430907 0.339944
vt 0.030351 0.457728
vt 0.042186 0.373886
vt 0.340896 0.782425
vt 0.380953 0.717833
vt 0.325380 0.738929
vt 0.042186 0.594419
vt 0.054758 0.547947
vt 0.536429 0.007397
vt 0.479741 0.230685
vt 0.486123 0.000000
vt 0.290001 0.353217
vt 0.244191 0.398873
vt 0.214548 0.454382
vt 0.197521 0.555249
vt 0.197521 0.449009
vt 0.371917 0.407931
vt 0.387162 0.398873
vt 0.086662 0.814989
vt 0.129189 0.594419
vt 0.137199 0.814989
vt 0.030351 0.510577
vt 0.000000 0.438479
vt 0.000000 0.529827
vt 0.454846 0.235738
vt 0.449675 0.007397
vt 0.256070 0.485309
vt 0.244191 0.494367
vt 0.214548 0.549877
vt 0.208807 0.630372
vt 0.167113 0.575387
vt 0.167113 0.428872
vt 0.208807 0.373886
vt 0.371917 0.485309
vt 0.387162 0.494367
vt 0.036353 0.594419
vt 0.005212 0.830170
vt 0.000000 0.601758
vt 0.086662 0.601758
vt 0.030041 0.825157
vt 0.286066 0.561893
vt 0.321054 0.814884
vt 0.297798 0.912778
vt 0.304431 0.807024
vt 0.205689 0.960423
vt 0.231208 0.847499
vt 0.231208 0.990364
vt 0.144033 0.561186
vt 0.144033 0.443073
vt 0.599337 0.470026
vt 0.594560 0.600115
vt 0.559535 0.467696
vt 0.224693 0.474754
vt 0.238360 0.373886
vt 0.238360 0.480126
vt 0.345287 0.561893
vt 0.290001 0.540023
vt 0.315092 0.909941
vt 0.304431 0.989402
vt 0.266226 0.928269
vt 0.275373 0.782425
vt 0.340404 0.782425
vt 0.340404 0.919109
vt 0.321054 0.804772
vt 0.381298 0.023098
vt 0.304376 0.000000
vt 0.389490 0.000000
vt 0.624734 0.436103
vt 0.663859 0.362009
vt 0.657985 0.446458
vt 0.624734 0.371158
vt 0.594559 0.331348
vt 0.458060 0.911918
vt 0.447358 0.991217
vt 0.440776 0.914793
vt 0.447358 0.809032
vt 0.180170 0.981034
vt 0.205689 0.847499
vt 0.205689 0.990365
vt 0.244191 0.910871
vt 0.251565 0.793299
vt 0.308051 0.023098
vt 0.244191 0.097049
vt 0.544955 0.449666
vt 0.509169 0.595725
vt 0.509169 0.440856
vt 0.433092 0.106617
vt 0.449675 0.097049
vt 0.632020 0.582193
vt 0.663858 0.564228
vt 0.500296 0.927435
vt 0.463976 0.809604
vt 0.500296 0.784569
vt 0.418335 0.784569
vt 0.409259 0.930424
vt 0.386798 0.782425
vt 0.364406 0.914740
vt 0.364406 0.796626
vt 0.256257 0.224730
vt 0.244191 0.234298
vt 0.544955 0.586915
vt 0.525620 0.705234
vt 0.559535 0.352617
vt 0.525621 0.331348
vt 0.433092 0.224730
vt 0.449675 0.234298
vt 0.570209 0.211913
vt 0.536429 0.322167
vt 0.536429 0.237240
vt 0.387162 0.912935
vt 0.394479 0.795355
vt 0.308051 0.308249
vt 0.304376 0.331348
vt 0.640112 0.719265
vt 0.595359 0.859393
vt 0.605028 0.705234
vt 0.658698 0.150597
vt 0.632121 0.265575
vt 0.622527 0.154171
vt 0.106845 0.961048
vt 0.137199 0.814989
vt 0.137199 0.969858
vt 0.631542 0.855884
vt 0.605028 0.971090
vt 0.667200 0.013968
vt 0.632121 0.000000
vt 0.389490 0.331348
vt 0.381298 0.308249
vt 0.557460 0.935721
vt 0.569619 0.928009
vt 0.569619 0.943433
vt 0.562496 0.954339
vt 0.562496 0.917102
vt 0.226331 0.570051
vt 0.241030 0.554627
vt 0.241030 0.570051
vt 0.552423 0.954339
vt 0.226331 0.554627
vt 0.239391 0.543720
vt 0.552423 0.917102
vt 0.224693 0.491033
vt 0.240851 0.480126
vt 0.239537 0.491033
vt 0.243011 0.570051
vt 0.243011 0.591650
vt 0.234766 0.577475
vt 0.545300 0.943433
vt 0.226336 0.543720
vt 0.241033 0.528297
vt 0.241027 0.543720
vt 0.241677 0.669942
vt 0.241677 0.688923
vt 0.233656 0.678623
vt 0.545300 0.928009
vt 0.224693 0.506456
vt 0.239537 0.506457
vt 0.234165 0.610005
vt 0.243606 0.592556
vt 0.243606 0.614156
vt 0.226341 0.528297
vt 0.239384 0.517363
vt 0.233656 0.669942
vt 0.238718 0.654374
vt 0.243730 0.669942
vt 0.226006 0.517363
vt 0.240851 0.517363
vt 0.224693 0.609965
vt 0.234165 0.592556
vt 0.234165 0.615215
vt 0.234766 0.592556
vt 0.224693 0.570051
vt 0.234766 0.570051
vt 0.243155 0.688923
vt 0.243155 0.704951
vt 0.233656 0.692754
vt 0.243606 0.614156
vt 0.243606 0.635755
vt 0.234165 0.618307
vt 0.234165 0.654374
vt 0.236578 0.635755
vt 0.243730 0.654374
vt 0.549929 0.211913
vt 0.536429 0.137002
vt 0.172669 0.000000
vt 0.244191 0.264378
vt 0.071522 0.373886
vt 0.387162 0.644338
vt 0.508496 0.644338
vt 0.498378 0.774141
vt 0.595359 0.708511
vt 0.101096 0.939624
vt 0.144033 0.847499
vt 0.576400 0.204710
vt 0.223227 0.847499
vt 0.522636 0.917102
vt 0.622527 0.003218
vt 0.406500 0.331348
vt 0.514099 0.235738
vt 0.256070 0.407931
vt 0.094672 0.594419
vt 0.224693 0.617402
vt 0.224693 0.386857
vt 0.064402 0.830170
vt 0.205689 0.856830
vt 0.624734 0.566044
vt 0.224693 0.379259
vt 0.337986 0.540023
vt 0.321054 0.978815
vt 0.364406 0.924257
vt 0.632020 0.331348
vt 0.463976 0.980612
vt 0.463976 0.816853
vt 0.180170 0.877441
vt 0.256257 0.106617
vt 0.463976 0.913197
vt 0.386798 0.928941
vt 0.559535 0.683964
vt 0.570209 0.317261
vt 0.667200 0.249327
vt 0.106845 0.823799
vt 0.640112 0.954873
vt 0.224693 0.543720
vt 0.226006 0.480126
vt 0.224693 0.517363
vt 0.224693 0.592556
vt 0.000000 0.109509
vt 0.071522 0.000000
vt 0.244191 0.109509
vt 0.172669 0.373886
vt 0.000000 0.264378
vn -0.8773 0.3136 -0.3634
vn -0.9049 -0.2019 -0.3748
vn -0.8773 0.3136 0.3634
vn -0.6681 0.6907 -0.2767
vn -0.8217 0.4571 -0.3404
vn -0.9049 -0.2019 0.3748
vn -0.3748 -0.2019 -0.9049
vn -0.6681 0.6907 0.2767
vn -0.2767 0.6907 -0.6681
vn 0.6684 0.6903 0.2769
vn -0.3404 0.4571 -0.8217
vn -0.7003 -0.6522 -0.2901
vn -0.8217 0.4571 0.3404
vn -0.3748 -0.2019 0.9049
vn 0.3748 -0.2019 -0.9049
vn -0.2769 0.6903 0.6684
vn 0.3062 0.6843 -0.6618
vn 0.3404 0.4571 -0.8217
vn -0.2901 -0.6522 -0.7003
vn -0.4068 0.8979 -0.1685
vn -0.7003 -0.6522 0.2901
vn -0.3404 0.4571 0.8217
vn 0.3748 -0.2019 0.9049
vn 0.9049 -0.2019 -0.3748
vn 0.8773 0.3136 0.3634
vn -0.3634 0.3136 0.8773
vn 0.2769 0.6903 0.6684
vn 0.8773 0.3136 -0.3634
vn 0.6684 0.6903 -0.2769
vn 0.8217 0.4570 -0.3404
vn 0.2901 -0.6522 -0.7003
vn -0.1685 0.8979 -0.4068
vn -0.3645 -0.9189 -0.1510
vn -0.4068 0.8979 0.1685
vn -0.2901 -0.6522 0.7003
vn 0.3404 0.4571 0.8217
vn 0.9049 -0.2019 0.3748
vn -0.3634 0.3136 -0.8773
vn 0.3634 0.3136 -0.8773
vn 0.8217 0.4570 0.3404
vn 0.7003 -0.6522 -0.2901
vn 0.1685 0.8979 -0.4068
vn -0.1510 -0.9189 -0.3645
vn -0.9164 0.1269 -0.3796
vn -0.3645 -0.9189 0.1510
vn -0.1685 0.8979 0.4068
vn 0.2901 -0.6522 0.7003
vn 0.7003 -0.6522 0.2901
vn 0.4068 0.8979 -0.1685
vn 0.1510 -0.9189 -0.3645
vn -0.3796 0.1269 -0.9164
vn -0.3266 0.9354 -0.1353
vn -0.9164 0.1269 0.3796
vn -0.1510 -0.9189 0.3645
vn 0.1685 0.8979 0.4068
vn 0.4068 0.8979 0.1685
vn 0.3645 -0.9189 -0.1510
vn 0.3796 0.1269 -0.9164
vn -0.1353 0.9354 -0.3266
vn -0.8118 0.4774 -0.3363
vn -0.3266 0.9354 0.1353
vn -0.3796 0.1269 0.9164
vn 0.1510 -0.9189 0.3645
vn 0.3645 -0.9189 0.1510
vn 0.9164 0.1269 -0.3796
vn 0.1353 0.9354 -0.3266
vn -0.3363 0.4774 -0.8118
vn -0.5554 0.7991 -0.2301
vn -0.8118 0.4774 0.3363
vn -0.1353 0.9354 0.3266
vn 0.3796 0.1269 0.9164
vn 0.9164 0.1269 0.3796
vn 0.3266 0.9354 -0.1353
vn 0.3363 0.4774 -0.8118
vn -0.2301 0.7991 -0.5554
vn -0.7330 -0.6087 -0.3036
vn -0.5554 0.7991 0.2301
vn -0.3363 0.4774 0.8118
vn 0.1353 0.9354 0.3266
vn 0.3266 0.9354 0.1353
vn 0.8118 0.4774 -0.3363
vn 0.2301 0.7991 -0.5554
vn -0.3036 -0.6087 -0.7330
vn -0.3999 0.9015 -0.1656
vn -0.7330 -0.6087 0.3036
vn -0.2301 0.7991 0.5554
vn 0.3363 0.4774 0.8118
vn 0.8118 0.4774 0.3363
vn 0.5554 0.7991 -0.2301
vn 0.3036 -0.6087 -0.7330
vn -0.1656 0.9015 -0.3999
vn -0.8541 0.3811 -0.3538
vn -0.3999 0.9015 0.1656
vn -0.3036 -0.6087 0.7330
vn 0.2301 0.7991 0.5554
vn 0.5554 0.7991 0.2301
vn 0.7330 -0.6087 -0.3036
vn 0.1656 0.9015 -0.3999
vn -0.3538 0.3811 -0.8542
vn -0.8542 0.3811 0.3538
vn -0.1656 0.9015 0.3999
vn 0.3036 -0.6087 0.7330
vn 0.7330 -0.6087 0.3036
vn 0.3999 0.9015 -0.1656
vn 0.3538 0.3811 -0.8542
vn 0.3538 0.3811 0.8541
vn -0.3538 0.3811 0.8541
vn 0.8542 0.3811 -0.3538
vn 0.8542 0.3811 0.3538
vn 0.1656 0.9015 0.3999
vn 0.3999 0.9015 0.1656
vn -0.4896 -0.8480 -0.2028
vn -0.2028 -0.8480 -0.4896
vn -0.4896 -0.8480 0.2028
vn -0.9239 0.0000 -0.3827
vn 0.2028 -0.8480 -0.4896
vn -0.3827 0.0000 -0.9239
vn -0.2028 -0.8480 0.4896
vn -0.9239 0.0000 0.3827
vn -0.4896 0.8480 -0.2028
vn 0.4896 -0.8480 -0.2028
vn 0.3827 0.0000 -0.9239
vn -0.2028 0.8480 -0.4896
vn 0.2028 -0.8480 0.4896
vn -0.3827 0.0000 0.9239
vn -0.4896 0.8480 0.2028
vn 0.4896 -0.8480 0.2028
vn 0.9239 0.0000 -0.3827
vn 0.2028 0.8480 -0.4896
vn 0.3827 0.0000 0.9239
vn -0.2028 0.8480 0.4896
vn 0.9239 0.0000 0.3827
vn 0.4896 0.8480 -0.2028
vn 0.2028 0.8480 0.4896
vn 0.4896 0.8480 0.2028
vn 0.3634 0.3136 0.8773
vn 0.0000 -1.0000 0.0000
vn 0.8773 0.3137 0.3634
vn 0.8217 0.4571 -0.3404
vn 0.3942 0.3444 -0.8520
vn 0.8217 0.4571 0.3404
vn 0.3267 0.9354 -0.1353
vn 0.3267 0.9354 0.1353
vn -0.8541 0.3811 0.3538
vn 0.3538 0.3811 0.8542
vn -0.3538 0.3811 0.8542
vn 0.8541 0.3811 0.3538
vn 0.3634 0.3137 0.8773
s off
f 2/1/1 4/2/1 1/3/1
f 1/3/2 6/4/2 5/5/2
f 1/3/3 8/6/3 2/1/3
f 2/7/4 9/8/4 3/9/4
f 6/4/5 13/10/5 5/5/5
f 5/11/6 7/12/6 1/13/6
f 4/2/7 15/14/7 6/4/7
f 8/15/8 9/16/8 2/17/8
f 3/18/9 9/19/9 10/20/9
f 28/21/10 114/22/10 25/23/10
f 15/14/11 12/24/11 6/4/11
f 19/25/12 13/26/12 12/27/12
f 5/5/13 21/28/13 14/29/13
f 16/30/14 14/31/14 22/32/14
f 11/33/15 23/34/15 15/35/15
f 8/36/16 26/37/16 114/38/16
f 10/39/17 9/40/17 27/41/17
f 30/42/18 15/35/18 23/34/18
f 19/25/19 18/43/19 31/44/19
f 33/45/20 19/46/20 32/47/20
f 34/48/21 13/26/21 20/49/21
f 14/31/22 35/50/22 22/32/22
f 36/51/23 16/52/23 22/53/23
f 17/54/24 37/55/24 23/34/24
f 28/56/25 24/57/25 29/58/25
f 16/30/26 8/59/26 7/12/26
f 25/60/27 114/61/27 26/62/27
f 27/63/28 29/64/28 17/54/28
f 28/65/29 27/66/29 114/67/29
f 38/68/30 23/34/30 37/55/30
f 31/44/31 30/69/31 39/70/31
f 40/71/32 19/46/32 31/72/32
f 42/73/33 32/74/33 41/75/33
f 33/45/34 34/76/34 20/77/34
f 44/78/35 21/79/35 34/80/35
f 35/81/36 36/82/36 22/83/36
f 29/58/37 36/82/37 37/84/37
f 10/85/38 4/2/38 3/86/38
f 10/87/39 17/54/39 11/33/39
f 45/88/40 37/84/40 36/82/40
f 39/70/41 38/89/41 46/90/41
f 40/71/42 39/91/42 47/92/42
f 41/75/43 40/93/43 48/94/43
f 50/95/44 41/96/44 49/97/44
f 51/98/45 33/99/45 42/73/45
f 43/100/46 44/101/46 34/76/46
f 44/102/47 45/103/47 35/104/47
f 53/105/48 38/89/48 45/103/48
f 47/92/49 46/106/49 54/107/49
f 48/94/50 47/108/50 55/109/50
f 49/97/51 48/110/51 56/111/51
f 50/112/52 58/113/52 57/114/52
f 59/115/53 42/116/53 50/95/53
f 60/117/54 43/118/54 51/98/54
f 61/119/55 44/101/55 52/120/55
f 54/107/56 53/121/56 61/119/56
f 55/109/57 54/122/57 62/123/57
f 56/124/58 55/125/58 63/126/58
f 49/127/59 64/128/59 58/113/59
f 57/129/60 66/130/60 65/131/60
f 59/132/61 57/114/61 67/133/61
f 68/134/62 51/135/62 59/136/62
f 69/137/63 52/138/63 60/117/63
f 69/137/64 54/122/64 61/139/64
f 63/126/65 62/140/65 70/141/65
f 64/128/66 63/142/66 71/143/66
f 58/144/67 72/145/67 66/130/67
f 65/131/68 74/146/68 73/147/68
f 75/148/69 57/129/69 65/131/69
f 68/149/70 67/133/70 76/150/70
f 77/151/71 60/152/71 68/153/71
f 70/154/72 69/155/72 77/151/72
f 63/142/73 78/156/73 71/143/73
f 64/157/74 79/158/74 72/159/74
f 66/160/75 80/161/75 74/162/75
f 73/147/76 82/163/76 81/164/76
f 75/165/77 73/166/77 83/167/77
f 76/168/78 75/169/78 84/170/78
f 85/171/79 68/149/79 76/150/79
f 70/172/80 85/171/80 78/156/80
f 71/173/81 86/174/81 79/158/81
f 72/159/82 87/175/82 80/176/82
f 74/177/83 88/178/83 82/179/83
f 81/180/84 90/181/84 89/182/84
f 83/183/85 81/184/85 91/185/85
f 84/186/86 83/167/86 92/187/86
f 85/188/87 84/189/87 93/190/87
f 86/191/88 85/188/88 93/190/88
f 79/192/89 94/193/89 87/194/89
f 80/176/90 95/195/90 88/196/90
f 82/197/91 96/198/91 90/181/91
f 89/199/92 98/200/92 97/201/92
f 91/202/93 89/182/93 99/203/93
f 92/204/94 91/185/94 100/205/94
f 101/206/95 84/207/95 92/208/95
f 94/209/96 93/190/96 101/210/96
f 87/211/97 102/212/97 95/213/97
f 96/198/98 95/214/98 103/215/98
f 90/216/99 104/217/99 98/200/99
f 99/218/100 97/201/100 106/219/100
f 100/220/101 99/203/101 110/221/101
f 101/222/102 100/223/102 111/224/102
f 94/209/103 111/225/103 102/226/103
f 103/215/104 102/227/104 112/228/104
f 96/229/105 107/230/105 104/231/105
f 113/232/106 105/233/106 109/234/106
f 110/235/107 106/236/107 105/237/107
f 103/238/108 108/239/108 107/230/108
f 112/240/109 109/234/109 108/241/109
f 113/242/110 100/220/110 110/221/110
f 112/228/111 111/243/111 113/242/111
f 114/244/112 115/245/112 116/246/112
f 114/244/113 116/246/113 117/247/113
f 114/244/114 118/248/114 115/245/114
f 119/249/115 116/250/115 115/251/115
f 114/244/116 117/247/116 121/252/116
f 120/253/117 117/254/117 116/250/117
f 114/244/118 123/255/118 118/248/118
f 124/256/119 115/257/119 118/258/119
f 119/259/120 125/260/120 120/261/120
f 114/244/121 121/252/121 126/262/121
f 122/263/122 121/264/122 117/265/122
f 120/266/123 125/267/123 122/268/123
f 114/244/124 128/269/124 123/255/124
f 129/270/125 118/258/125 123/271/125
f 124/272/126 125/273/126 119/274/126
f 114/244/127 126/262/127 128/269/127
f 127/275/128 126/276/128 121/264/128
f 122/277/129 125/278/129 127/279/129
f 131/280/130 123/271/130 128/281/130
f 129/282/131 125/283/131 124/284/131
f 130/285/132 128/286/132 126/287/132
f 127/288/133 125/289/133 130/290/133
f 131/291/134 125/292/134 129/293/134
f 130/294/135 125/295/135 131/296/135
f 24/57/136 26/297/136 16/298/136
f 98/299/137 107/300/137 109/301/137
f 2/1/1 3/86/1 4/2/1
f 1/3/2 4/2/2 6/4/2
f 1/3/3 7/302/3 8/6/3
f 6/4/5 12/24/5 13/10/5
f 5/11/6 14/31/6 7/12/6
f 4/2/7 11/303/7 15/14/7
f 15/14/11 18/304/11 12/24/11
f 19/25/12 20/49/12 13/26/12
f 5/5/13 13/10/13 21/28/13
f 16/30/14 7/12/14 14/31/14
f 11/33/15 17/54/15 23/34/15
f 30/42/18 18/305/18 15/35/18
f 19/25/19 12/27/19 18/43/19
f 33/45/20 20/77/20 19/46/20
f 34/48/21 21/306/21 13/26/21
f 14/31/22 21/79/22 35/50/22
f 36/51/23 24/307/23 16/52/23
f 17/54/24 29/64/24 37/55/24
f 28/56/138 25/308/138 24/57/138
f 16/30/26 26/309/26 8/59/26
f 27/63/28 28/310/28 29/64/28
f 38/68/139 30/42/139 23/34/139
f 31/44/31 18/43/31 30/69/31
f 40/71/32 32/47/32 19/46/32
f 42/73/33 33/99/33 32/74/33
f 33/45/34 43/100/34 34/76/34
f 44/78/35 35/50/35 21/79/35
f 35/81/36 45/88/36 36/82/36
f 29/58/37 24/57/37 36/82/37
f 10/85/38 11/303/38 4/2/38
f 10/87/140 27/63/140 17/54/140
f 45/88/141 38/311/141 37/84/141
f 39/70/41 30/69/41 38/89/41
f 40/71/42 31/72/42 39/91/42
f 41/75/43 32/74/43 40/93/43
f 50/95/44 42/116/44 41/96/44
f 51/98/45 43/118/45 33/99/45
f 43/100/46 52/120/46 44/101/46
f 44/102/47 53/105/47 45/103/47
f 53/105/48 46/90/48 38/89/48
f 47/92/49 39/91/49 46/106/49
f 48/94/50 40/93/50 47/108/50
f 49/97/51 41/96/51 48/110/51
f 50/112/52 49/127/52 58/113/52
f 59/115/53 51/312/53 42/116/53
f 60/117/54 52/138/54 43/118/54
f 61/119/55 53/121/55 44/101/55
f 54/107/56 46/106/56 53/121/56
f 55/109/57 47/108/57 54/122/57
f 56/124/58 48/313/58 55/125/58
f 49/127/59 56/314/59 64/128/59
f 57/129/60 58/144/60 66/130/60
f 59/132/61 50/112/61 57/114/61
f 68/134/62 60/315/62 51/135/62
f 69/137/63 61/139/63 52/138/63
f 69/137/64 62/123/64 54/122/64
f 63/126/65 55/125/65 62/140/65
f 64/128/66 56/314/66 63/142/66
f 58/144/67 64/316/67 72/145/67
f 65/131/68 66/130/68 74/146/68
f 75/148/69 67/317/69 57/129/69
f 68/149/70 59/132/70 67/133/70
f 77/151/71 69/155/71 60/152/71
f 70/154/72 62/318/72 69/155/72
f 63/142/142 70/172/142 78/156/142
f 64/157/74 71/173/74 79/158/74
f 66/160/75 72/319/75 80/161/75
f 73/147/76 74/146/76 82/163/76
f 75/165/77 65/320/77 73/166/77
f 76/168/78 67/321/78 75/169/78
f 85/171/79 77/322/79 68/149/79
f 70/172/143 77/322/143 85/171/143
f 71/173/81 78/323/81 86/174/81
f 72/159/82 79/158/82 87/175/82
f 74/177/83 80/324/83 88/178/83
f 81/180/84 82/197/84 90/181/84
f 83/183/85 73/325/85 81/184/85
f 84/186/86 75/165/86 83/167/86
f 85/188/87 76/326/87 84/189/87
f 86/191/88 78/327/88 85/188/88
f 79/192/89 86/328/89 94/193/89
f 80/176/90 87/175/90 95/195/90
f 82/197/91 88/329/91 96/198/91
f 89/199/92 90/216/92 98/200/92
f 91/202/93 81/180/93 89/182/93
f 92/204/94 83/183/94 91/185/94
f 101/206/95 93/330/95 84/207/95
f 94/209/96 86/191/96 93/190/96
f 87/211/97 94/331/97 102/212/97
f 96/198/98 88/329/98 95/214/98
f 90/216/99 96/332/99 104/217/99
f 99/218/144 89/199/144 97/201/144
f 100/220/101 91/202/101 99/203/101
f 101/222/102 92/333/102 100/223/102
f 94/209/103 101/210/103 111/225/103
f 103/215/104 95/214/104 102/227/104
f 96/229/105 103/238/105 107/230/105
f 113/232/145 110/334/145 105/233/145
f 110/235/146 99/335/146 106/236/146
f 103/238/108 112/336/108 108/239/108
f 112/240/147 113/232/147 109/234/147
f 113/242/110 111/243/110 100/220/110
f 112/228/111 102/227/111 111/243/111
f 119/249/115 120/253/115 116/250/115
f 120/253/117 122/337/117 117/254/117
f 124/256/119 119/338/119 115/257/119
f 122/263/122 127/275/122 121/264/122
f 129/270/125 124/256/125 118/258/125
f 127/275/128 130/339/128 126/276/128
f 131/280/130 129/270/130 123/271/130
f 130/285/132 131/340/132 128/286/132
f 24/57/148 25/308/148 26/297/148
f 106/341/137 97/342/137 98/299/137
f 98/299/137 104/343/137 107/300/137
f 107/300/137 108/344/137 109/301/137
f 109/301/137 105/345/137 106/341/137
f 106/341/137 98/299/137 109/301/137
