# Blender v2.79 (sub 0) OBJ File: ''
# www.blender.org
mtllib secindicators.mtl
o Cube.001
v 0.000000 0.007622 -0.017503
v 0.000000 0.007622 -0.005392
v 0.007317 0.005717 -0.005392
v 0.000000 0.005717 0.002306
v 0.005420 0.004235 0.000311
v -0.007317 0.005717 -0.005392
v -0.005420 0.004235 0.000311
v 0.007317 -0.005717 -0.005392
v 0.000000 -0.007622 -0.005392
v 0.000000 -0.007622 -0.017503
v -0.007317 -0.005717 -0.005392
v 0.000000 -0.005717 0.002307
v -0.005420 -0.004235 0.000311
v 0.005420 -0.004235 0.000311
v 0.009756 0.000000 -0.005392
v 0.009756 0.000000 -0.017503
v 0.007317 -0.000000 0.002307
v 0.000000 -0.000000 0.004872
v -0.007317 -0.000000 0.002306
v -0.007317 0.005717 -0.601609
v -0.009756 0.000000 -0.601609
v -0.009756 0.000000 -0.184209
v -0.007317 -0.005717 -0.601609
v -0.007317 -0.005717 -0.184209
v -0.007317 0.000000 -1.014597
v -0.005420 -0.004235 -0.907526
v -0.005420 0.004235 -0.907526
v 0.000000 0.000000 -1.152259
v 0.007317 0.000000 -1.014596
v 0.005420 -0.004235 -0.907526
v 0.000000 0.005717 -1.014597
v 0.005420 0.004235 -0.907526
v 0.000000 -0.005717 -1.014597
v -0.009756 0.000000 -0.005392
v -0.009756 0.000000 -0.017504
v 0.007317 0.005717 -0.033308
v 0.009756 0.000000 -0.033308
v 0.009756 0.000000 -0.184208
v 0.007317 -0.005717 -0.033308
v 0.000000 -0.007622 -0.033308
v 0.000000 -0.007622 -0.184209
v -0.007317 -0.005717 -0.033308
v 0.007317 -0.005717 -0.017503
v 0.000000 0.007623 -0.184209
v 0.000000 0.007622 -0.033308
v -0.007317 0.005717 -0.033308
v 0.000000 0.007623 -0.601609
v 0.007317 0.005717 -0.601609
v 0.000000 -0.007622 -0.601609
v 0.007317 -0.005717 -0.601609
v 0.007317 -0.005717 -0.184208
v 0.009756 0.000000 -0.601609
v 0.007317 0.005717 -0.184209
v -0.009756 0.000000 -0.033308
v 0.007317 0.005717 -0.017503
v -0.007317 0.005717 -0.017503
v -0.007317 -0.005717 -0.017504
v -0.007317 0.005717 -0.184209
vt 0.000000 0.500000
vt 0.500000 0.500000
vt 0.500000 0.000000
vt 1.000000 0.500000
vt 1.000000 0.000000
vt 0.500000 1.000000
vt 1.000000 1.000000
vt 0.000000 0.500000
vt 0.500000 0.500000
vt 0.500000 0.000000
vt 1.000000 0.500000
vt 0.500000 1.000000
vt 1.000000 1.000000
vt 0.000000 1.000000
vt 0.000000 0.500000
vt 0.500000 0.500000
vt 0.500000 0.000000
vt 1.000000 0.500000
vt 0.500000 1.000000
vt 1.000000 1.000000
vt 0.000000 1.000000
vt 0.500000 0.500000
vt 0.500000 0.000000
vt 0.000000 0.000000
vt 1.000000 0.500000
vt 1.000000 0.000000
vt 0.500000 1.000000
vt 0.000000 0.500000
vt 0.000000 1.000000
vt 0.000000 0.500000
vt 0.500000 0.500000
vt 0.500000 0.000000
vt 1.000000 0.500000
vt 1.000000 0.000000
vt 0.500000 1.000000
vt 1.000000 1.000000
vt 0.000000 1.000000
vt 0.500000 0.500000
vt 0.500000 0.000000
vt 0.000000 0.000000
vt 1.000000 0.500000
vt 1.000000 0.000000
vt 1.000000 1.000000
vt 0.000000 0.500000
vt 0.000000 1.000000
vt 0.500000 0.500000
vt 0.500000 0.000000
vt 0.000000 0.000000
vt 1.000000 0.000000
vt 0.500000 1.000000
vt 0.000000 0.500000
vt 0.000000 0.500000
vt 0.500000 0.500000
vt 0.500000 0.000000
vt 1.000000 0.500000
vt 0.500000 1.000000
vt 0.000000 0.500000
vt 0.500000 0.500000
vt 0.500000 0.000000
vt 1.000000 0.500000
vt 0.500000 1.000000
vt 0.000000 1.000000
vt 0.000000 0.500000
vt 0.500000 0.500000
vt 0.500000 0.000000
vt 1.000000 0.500000
vt 0.500000 1.000000
vt 0.500000 0.500000
vt 0.500000 0.000000
vt 0.000000 0.000000
vt 1.000000 0.500000
vt 0.500000 1.000000
vt 0.000000 0.500000
vt 0.500000 0.500000
vt 0.500000 0.000000
vt 1.000000 0.000000
vt 0.500000 1.000000
vt 1.000000 1.000000
vt 0.000000 0.500000
vt 0.000000 1.000000
vt 0.500000 0.500000
vt 1.000000 0.500000
vt 1.000000 0.000000
vt 0.500000 1.000000
vt 0.000000 0.500000
vt 0.000000 1.000000
vt 0.000000 0.500000
vt 0.500000 0.500000
vt 0.500000 0.000000
vt 0.500000 1.000000
vt 0.000000 0.000000
vt 0.000000 1.000000
vt 0.000000 0.000000
vt 1.000000 0.000000
vt 1.000000 0.000000
vt 0.000000 0.000000
vt 1.000000 1.000000
vt 0.000000 0.000000
vt 1.000000 0.000000
vt 1.000000 1.000000
vt 0.000000 1.000000
vt 0.000000 0.000000
vt 1.000000 0.000000
vt 1.000000 1.000000
vt 0.000000 1.000000
vt 1.000000 0.000000
vt 1.000000 1.000000
vt 1.000000 1.000000
vt 0.000000 0.000000
vn 0.2521 0.9677 0.0000
vn 0.3336 0.9151 0.2265
vn -0.2390 0.9175 0.3179
vn -0.2521 0.9677 0.0000
vn 0.2521 -0.9677 -0.0000
vn -0.2521 -0.9677 -0.0000
vn -0.3336 -0.9151 0.2265
vn 0.2390 -0.9175 0.3179
vn 0.9198 0.3924 0.0000
vn 0.9198 -0.3924 -0.0000
vn 0.8284 -0.4948 0.2625
vn 0.8516 0.3634 0.3777
vn 0.2846 0.5101 0.8117
vn 0.4088 -0.3737 0.8326
vn -0.2847 -0.5100 0.8117
vn -0.4088 0.3738 0.8326
vn -0.9198 0.3924 0.0029
vn -0.9198 0.3924 -0.0038
vn -0.9198 0.3924 0.0000
vn -0.9198 -0.3924 0.0029
vn -0.9198 -0.3924 -0.0038
vn -0.9198 -0.3924 -0.0000
vn -0.8585 -0.5128 -0.0051
vn -0.9198 0.3924 -0.0076
vn 0.4872 -0.8729 -0.0259
vn 0.7378 0.6745 -0.0280
vn -0.4872 0.8729 -0.0259
vn -0.7378 -0.6745 -0.0280
vn -0.8284 0.4948 0.2625
vn -0.8517 -0.3634 0.3777
vn 0.2521 0.9677 -0.0031
vn 0.2521 0.9677 0.0001
vn 0.2521 0.9677 -0.0063
vn -0.2521 0.9677 -0.0031
vn -0.2521 0.9677 0.0001
vn -0.3425 0.9395 -0.0043
vn 0.3425 -0.9395 -0.0043
vn -0.2521 -0.9677 0.0001
vn -0.2521 -0.9677 -0.0031
vn -0.2521 -0.9677 -0.0063
vn 0.2521 -0.9677 0.0001
vn 0.2521 -0.9677 -0.0031
vn 0.8585 0.5128 -0.0051
vn 0.9198 -0.3924 -0.0038
vn 0.9198 -0.3924 0.0029
vn 0.9198 -0.3924 -0.0076
vn 0.9198 0.3924 0.0029
vn 0.9198 0.3924 -0.0038
vn 0.2390 0.9175 0.3179
vn -0.3336 0.9151 0.2265
vn -0.2390 -0.9175 0.3179
vn 0.3336 -0.9151 0.2265
vn 0.8516 -0.3634 0.3777
vn 0.8284 0.4948 0.2625
vn 0.4088 0.3738 0.8326
vn 0.2846 -0.5101 0.8117
vn -0.4088 -0.3737 0.8326
vn -0.2847 0.5100 0.8117
vn -0.9198 -0.3924 -0.0076
vn -0.8585 0.5128 -0.0051
vn 0.7378 -0.6745 -0.0280
vn 0.4872 0.8729 -0.0259
vn -0.7378 0.6745 -0.0280
vn -0.4872 -0.8729 -0.0259
vn -0.8517 0.3634 0.3777
vn -0.8284 -0.4948 0.2625
vn 0.3425 0.9395 -0.0043
vn -0.2521 0.9677 -0.0063
vn 0.2521 -0.9677 -0.0063
vn -0.3425 -0.9395 -0.0043
vn 0.9198 0.3924 -0.0076
vn 0.8585 -0.5128 -0.0051
usemtl Material.001
s 1
f 1/1/1 2/2/1 3/3/1
f 2/2/2 4/4/2 5/5/2
f 2/2/3 6/6/3 7/7/3
f 6/6/4 2/2/4 1/1/4
f 8/8/5 9/9/5 10/10/5
f 10/10/6 9/9/6 11/11/6
f 9/9/7 12/12/7 13/13/7
f 9/9/8 8/8/8 14/14/8
f 3/15/9 15/16/9 16/17/9
f 16/17/10 15/16/10 8/18/10
f 15/16/11 17/19/11 14/20/11
f 15/16/12 3/15/12 5/21/12
f 18/22/13 17/23/13 5/24/13
f 18/22/14 12/25/14 14/26/14
f 18/22/15 19/27/15 13/13/15
f 18/22/16 4/28/16 7/29/16
f 20/30/17 21/31/18 22/32/19
f 21/31/20 23/33/21 24/34/22
f 21/31/23 25/35/23 26/36/23
f 21/31/18 20/30/17 27/37/24
f 28/38/25 29/39/25 30/40/25
f 28/38/26 31/41/26 32/42/26
f 28/38/27 25/35/27 27/43/27
f 28/38/28 33/44/28 26/45/28
f 34/46/29 19/47/29 7/48/29
f 34/46/30 11/11/30 13/49/30
f 11/11/22 34/46/22 35/50/22
f 35/50/19 34/46/19 6/51/19
f 36/52/9 37/53/9 38/54/9
f 38/54/10 37/53/10 39/55/10
f 39/55/10 37/53/10 16/56/10
f 16/56/9 37/53/9 36/52/9
f 39/57/5 40/58/5 41/59/5
f 41/59/6 40/58/6 42/60/6
f 42/60/6 40/58/6 10/61/6
f 40/58/5 39/57/5 43/62/5
f 44/63/1 45/64/1 36/65/1
f 36/65/1 45/64/1 1/66/1
f 1/66/4 45/64/4 46/67/4
f 46/67/4 45/64/4 44/63/4
f 47/68/31 48/69/32 32/70/33
f 48/69/32 47/68/31 44/71/1
f 44/71/4 47/68/34 20/72/35
f 47/68/36 31/73/36 27/37/36
f 49/74/37 33/75/37 30/40/37
f 49/74/38 23/33/39 26/76/40
f 49/74/38 41/77/6 24/78/6
f 49/74/41 50/79/42 51/80/5
f 52/81/43 29/39/43 32/70/43
f 52/81/44 50/82/45 30/83/46
f 50/82/45 52/81/44 38/84/10
f 52/81/47 48/85/48 53/86/9
f 46/87/19 54/88/19 35/89/19
f 35/89/22 54/88/22 42/60/22
f 42/60/22 54/88/22 22/90/22
f 22/90/19 54/88/19 46/87/19
f 1/1/1 3/3/1 55/91/1
f 2/2/49 5/5/49 3/3/49
f 2/2/50 7/7/50 4/4/50
f 6/6/4 1/1/4 56/92/4
f 8/8/5 10/10/5 43/93/5
f 10/10/6 11/11/6 57/94/6
f 9/9/51 13/13/51 11/11/51
f 9/9/52 14/14/52 12/12/52
f 3/15/9 16/17/9 55/91/9
f 16/17/10 8/18/10 43/95/10
f 15/16/53 14/20/53 8/18/53
f 15/16/54 5/21/54 17/19/54
f 18/22/55 5/24/55 4/28/55
f 18/22/56 14/26/56 17/23/56
f 18/22/57 13/13/57 12/25/57
f 18/22/58 7/29/58 19/27/58
f 20/30/17 22/32/19 58/96/19
f 21/31/20 24/34/22 22/32/22
f 21/31/20 26/36/59 23/33/21
f 21/31/60 27/37/60 25/35/60
f 28/38/61 30/40/61 33/44/61
f 28/38/62 32/42/62 29/39/62
f 28/38/63 27/43/63 31/41/63
f 28/38/64 26/45/64 25/35/64
f 34/46/65 7/48/65 6/51/65
f 34/46/66 13/49/66 19/47/66
f 11/11/22 35/50/22 57/97/22
f 35/50/19 6/51/19 56/92/19
f 36/52/9 38/54/9 53/98/9
f 38/54/10 39/55/10 51/99/10
f 39/55/10 16/56/10 43/100/10
f 16/56/9 36/52/9 55/101/9
f 39/57/5 41/59/5 51/102/5
f 41/59/6 42/60/6 24/34/6
f 42/60/6 10/61/6 57/97/6
f 40/58/5 43/62/5 10/61/5
f 44/63/1 36/65/1 53/98/1
f 36/65/1 1/66/1 55/103/1
f 1/66/4 46/67/4 56/104/4
f 46/67/4 44/63/4 58/105/4
f 47/68/67 32/70/67 31/73/67
f 48/69/32 44/71/1 53/106/1
f 44/71/4 20/72/35 58/107/4
f 47/68/34 27/37/68 20/72/35
f 49/74/41 30/40/69 50/79/42
f 49/74/70 26/76/70 33/75/70
f 49/74/38 24/78/6 23/33/39
f 49/74/41 51/80/5 41/77/5
f 52/81/47 32/70/71 48/85/48
f 52/81/72 30/83/72 29/39/72
f 50/82/45 38/84/10 51/108/10
f 52/81/47 53/86/9 38/84/9
f 46/87/19 35/89/19 56/109/19
f 35/89/22 42/60/22 57/94/22
f 42/60/22 22/90/22 24/78/22
f 22/90/19 46/87/19 58/105/19
